<?xml version="1.0" encoding="UTF-8" standalone="no"?>
<!-- Created with Inkscape (http://www.inkscape.org/) -->

<svg
   version="1.1"
   id="svg1"
   width="366.53333"
   height="161.71"
   viewBox="0 0 366.53333 161.71"
   sodipodi:docname="Logosimbolo-uniandes_horizontal.eps"
   xmlns:inkscape="http://www.inkscape.org/namespaces/inkscape"
   xmlns:sodipodi="http://sodipodi.sourceforge.net/DTD/sodipodi-0.dtd"
   xmlns="http://www.w3.org/2000/svg"
   xmlns:svg="http://www.w3.org/2000/svg">
  <defs
     id="defs1" />
  <sodipodi:namedview
     id="namedview1"
     pagecolor="#ffffff"
     bordercolor="#000000"
     borderopacity="0.25"
     inkscape:showpageshadow="2"
     inkscape:pageopacity="0.0"
     inkscape:pagecheckerboard="0"
     inkscape:deskcolor="#d1d1d1">
    <inkscape:page
       x="0"
       y="0"
       inkscape:label="1"
       id="page1"
       width="366.53333"
       height="161.71"
       margin="0"
       bleed="0" />
  </sodipodi:namedview>
  <g
     id="g1"
     inkscape:groupmode="layer"
     inkscape:label="1">
    <g
       id="group-R5">
      <path
         id="path23"
         d="M 0,0 H 2749.05 V 975.352 H 0 V 0"
         style="fill:#231f20;fill-opacity:1;fill-rule:nonzero;stroke:none"
         transform="matrix(0.13333333,0,0,-0.13333333,0,484.28)" />
      <path
         id="path24"
         d="m 667.477,242.879 c -107.473,-69.699 -219.086,-65.93 -219.086,-65.93 0,0 -3.063,14.242 -1.852,38.789 1.231,24.571 14.649,17.66 24.336,37.063 3.504,7.051 6.535,11.91 12.047,28.398 0.219,0.66 -6.445,118.332 -8.125,168.242 -0.902,26.868 -5.973,71.77 -11.899,115.418 -3.472,25.86 -11.343,46.371 -14.972,70.903 -5.266,35.468 -11.363,75.468 -11.363,75.468 -4.391,-11.3 -10.657,-53.55 -16.922,-101.21 -3.032,-22.891 -6.051,-47.04 -8.883,-69.61 -5.992,-47.75 -20.91,-175.64 -23.153,-182.57 -3.425,-10.531 -3.781,2.801 -3.781,2.801 0,0 8.836,134.14 11.496,192.968 1.313,28.75 3.489,60.34 7.067,90.653 2.695,22.789 6.176,44.84 10.683,64.41 0,0 15.364,46.43 20.266,47.367 4.902,0.902 22.609,-29.277 28.602,-56.129 13.566,-60.59 21.562,-68.359 31.878,-132.039 9.832,-60.492 18.797,-111.09 20,-119.391 4.391,-30.019 2.239,-123.691 -5.343,-160.968 -1.801,-10.192 -2.328,-13.93 -8.977,-20.653 -15.601,-15.757 -26.664,-34.55 -26.664,-46.82 0,-12.277 -2.055,-12.07 0.863,-19.141 0,0 20.535,-30.777 138.614,39.614 0,0 36.894,19.308 36.894,61.988 v 431.539 c 0,0 -117.055,39.551 -207.238,39.551 -90.168,0 -203.102,-39.512 -203.102,-39.512 V 304.449 c 0,-26.48 3.856,-74.179 41.621,-91.109 0,0 -100.578,32.558 -100.578,91.629 v 465.64 c 0,0 153.535,28.25 262.106,28.25 108.617,0 264.847,-28.25 264.847,-28.25 V 304.41 c 0,-40.16 -39.382,-61.531 -39.382,-61.531"
         style="fill:#ffffff;fill-opacity:1;fill-rule:nonzero;stroke:none"
         transform="matrix(0.13333333,0,0,-0.13333333,0,484.28)" />
      <path
         id="path25"
         d="m 995.426,376.898 c -26.047,-13.789 -59.297,-20.687 -99.762,-20.687 -67.187,0 -100.781,29.219 -100.781,87.738 v 177.422 h 58.789 v -180.84 c 0,-29.301 14.644,-43.929 43.879,-43.929 16.047,0 29.113,2.867 39.109,8.668 v 216.101 h 58.766 V 376.898"
         style="fill:#ffffff;fill-opacity:1;fill-rule:nonzero;stroke:none"
         transform="matrix(0.13333333,0,0,-0.13333333,0,484.28)" />
      <path
         id="path26"
         d="m 1251.11,361.391 h -58.75 v 184.347 c 0,28.992 -15.66,43.461 -46.99,43.461 -14.83,0 -28.37,-2.418 -40.63,-7.238 v -220.57 h -58.76 v 246.031 c 26.71,12.539 60.69,18.848 101.86,18.848 36.34,0 63.22,-8.071 80.62,-24.161 15.12,-13.48 22.65,-31.988 22.65,-55.468 v -185.25"
         style="fill:#ffffff;fill-opacity:1;fill-rule:nonzero;stroke:none"
         transform="matrix(0.13333333,0,0,-0.13333333,0,484.28)" />
      <path
         id="path27"
         d="m 1362.36,361.379 h -58.82 v 259.973 h 58.82 z m 3.12,333.949 c 0,-8.039 -3.17,-14.898 -9.42,-20.508 -6.27,-5.672 -13.94,-8.468 -22.91,-8.468 -9.02,0 -16.67,2.796 -22.9,8.468 -6.31,5.61 -9.44,12.469 -9.44,20.508 0,8.113 3.13,15.024 9.44,20.801 6.23,5.812 13.88,8.691 22.9,8.691 8.97,0 16.64,-2.789 22.91,-8.449 6.25,-5.621 9.42,-12.652 9.42,-21.043"
         style="fill:#ffffff;fill-opacity:1;fill-rule:nonzero;stroke:none"
         transform="matrix(0.13333333,0,0,-0.13333333,0,484.28)" />
      <path
         id="path28"
         d="M 1548.01,396.512 V 503.75 c -30.85,-3.871 -52.74,-9.82 -65.61,-17.852 -16.06,-10.019 -24.09,-26.097 -24.09,-48.32 0,-32.226 18.17,-48.316 54.47,-48.316 13.86,0 25.57,2.398 35.23,7.25 m 55.12,-21.192 c -23.49,-12.539 -54.85,-18.832 -94.1,-18.832 -70.8,0 -106.16,26.364 -106.16,79.133 0,31.527 14.32,55.16 42.91,70.93 22.5,12.238 56.61,20.578 102.23,25.09 v 13.988 c 0,28.672 -17.22,42.973 -51.6,42.973 -21.52,0 -43.22,-5.313 -65.11,-15.883 l -13.48,33.793 c 27.03,13.136 56.77,19.758 89.26,19.758 64.04,0 96.05,-29.95 96.05,-89.758 V 375.32"
         style="fill:#ffffff;fill-opacity:1;fill-rule:nonzero;stroke:none"
         transform="matrix(0.13333333,0,0,-0.13333333,0,484.28)" />
      <path
         id="path29"
         d="m 1858.64,361.391 h -58.77 v 184.347 c 0,28.992 -15.66,43.461 -46.95,43.461 -14.82,0 -28.37,-2.418 -40.63,-7.238 v -220.57 h -58.76 v 246.031 c 26.68,12.539 60.64,18.848 101.83,18.848 36.35,0 63.24,-8.071 80.61,-24.161 15.11,-13.48 22.67,-31.988 22.67,-55.468 v -185.25"
         style="fill:#ffffff;fill-opacity:1;fill-rule:nonzero;stroke:none"
         transform="matrix(0.13333333,0,0,-0.13333333,0,484.28)" />
      <path
         id="path30"
         d="m 2053.17,399.93 v 187.101 c -7.75,2.289 -16.44,3.391 -26.07,3.391 -45.73,0 -68.55,-32.973 -68.55,-98.883 0,-64.898 21.41,-97.379 64.17,-97.379 14.17,0 24.36,1.942 30.45,5.77 m 58.74,-24.61 c -22.5,-12.539 -52.74,-18.832 -90.73,-18.832 -38.26,0 -68.01,11.571 -89.26,34.731 -21.26,23.179 -31.86,55.5 -31.86,97 0,41.82 10.6,75.101 31.86,99.89 20.59,23.789 48,35.68 82.11,35.68 15.14,0 28.19,-1.559 39.14,-4.711 V 724.43 h 58.74 V 375.32"
         style="fill:#ffffff;fill-opacity:1;fill-rule:nonzero;stroke:none"
         transform="matrix(0.13333333,0,0,-0.13333333,0,484.28)" />
      <path
         id="path31"
         d="m 2312.75,516.289 c 0,49.199 -17.02,73.832 -51.08,73.832 -18.02,0 -31.83,-7.25 -41.45,-21.723 -10.6,-15.75 -15.57,-38.578 -14.93,-68.519 z m 55.11,-23.219 -159.26,-23.148 c 4.83,-48.301 28.45,-72.402 70.91,-72.402 25.11,0 47.02,4.839 65.64,14.55 l 14,-37.211 c -22.2,-12.257 -50.82,-18.371 -85.91,-18.371 -37.31,0 -66.74,11.742 -88.32,35.231 -21.52,23.5 -32.33,56.953 -32.33,100.39 0,42.121 9.9,75.02 29.71,98.629 19.77,23.684 46.89,35.532 81.35,35.532 34.73,0 61.08,-11.36 79.14,-34.04 18.01,-22.699 26.38,-55.718 25.07,-99.16"
         style="fill:#ffffff;fill-opacity:1;fill-rule:nonzero;stroke:none"
         transform="matrix(0.13333333,0,0,-0.13333333,0,484.28)" />
      <path
         id="path32"
         d="m 2557.69,436.141 c 0,-21.821 -8.51,-40.469 -25.55,-55.922 -16.99,-15.41 -39.29,-23.117 -66.87,-23.117 -29.55,0 -53.43,6.277 -71.72,18.808 l 15.43,37.602 c 12.54,-9.864 28.77,-14.774 48.67,-14.774 11.91,0 21.52,3.473 28.93,10.383 7.4,6.899 11.07,15.641 11.07,26.258 0,10.922 -2.89,19.5 -8.67,25.769 -5.78,6.274 -15.58,11.961 -29.4,17.102 -39.53,15.129 -59.31,39.379 -59.31,72.809 0,21.191 7.65,39.031 22.95,53.492 15.26,14.469 35.13,21.719 59.6,21.719 26.38,0 48.91,-6.141 67.56,-18.321 l -14.49,-34.25 c -11.89,9.5 -25.74,14.281 -41.48,14.281 -11.59,0 -20.7,-3.3 -27.26,-9.902 -6.62,-6.566 -9.89,-14.707 -9.89,-24.348 0,-17.011 12.75,-30.66 38.4,-40.96 41.32,-16.68 62.03,-42.239 62.03,-76.629"
         style="fill:#ffffff;fill-opacity:1;fill-rule:nonzero;stroke:none"
         transform="matrix(0.13333333,0,0,-0.13333333,0,484.28)" />
    </g>
  </g>
</svg>
