<?xml version="1.0" encoding="UTF-8" standalone="no"?>
<!-- Created with Inkscape (http://www.inkscape.org/) -->

<svg
   width="210mm"
   height="297mm"
   viewBox="0 0 210 297"
   version="1.1"
   id="svg1"
   sodipodi:docname="fig3.svg"
   inkscape:version="1.3.2 (091e20ef0f, 2023-11-25)"
   xmlns:inkscape="http://www.inkscape.org/namespaces/inkscape"
   xmlns:sodipodi="http://sodipodi.sourceforge.net/DTD/sodipodi-0.dtd"
   xmlns="http://www.w3.org/2000/svg"
   xmlns:svg="http://www.w3.org/2000/svg">
  <sodipodi:namedview
     id="namedview1"
     pagecolor="#ffffff"
     bordercolor="#000000"
     borderopacity="0.25"
     inkscape:showpageshadow="2"
     inkscape:pageopacity="0.0"
     inkscape:pagecheckerboard="0"
     inkscape:deskcolor="#d1d1d1"
     inkscape:document-units="mm"
     inkscape:zoom="0.46324355"
     inkscape:cx="397.19927"
     inkscape:cy="302.21684"
     inkscape:window-width="1010"
     inkscape:window-height="724"
     inkscape:window-x="0"
     inkscape:window-y="0"
     inkscape:window-maximized="1"
     inkscape:current-layer="svg1" />
  <defs
     id="defs1">
    <clipPath
       clipPathUnits="userSpaceOnUse"
       id="clipPath1230">
      <path
         id="path1231"
         style="fill:#ff0000;fill-opacity:1;fill-rule:nonzero;stroke:none;stroke-width:0.264583"
         d="M 59.024822,65.924658 V 216.25243 H 177.58916 V 65.924658 Z m 58.686338,69.310502 h 10e-4 l 5.3e-4,0.001 z m 0.003,0.003 c 0.69939,0.0131 1.09909,0.39097 1.1405,0.81855 0.31319,-0.10317 0.62142,-0.22171 0.93897,-0.30953 0.40531,-0.12232 0.82269,-0.16582 1.24179,-0.16331 l -5.3e-4,-5.2e-4 c 0.1397,7.9e-4 0.27931,0.007 0.4191,0.0165 0.451,0.0334 0.8731,0.16991 1.16582,0.53485 0.054,0.0672 0.0937,0.14516 0.14056,0.21756 0.0504,0.0777 0.0857,0.15322 0.1142,0.22738 0.0622,7.9e-4 0.12436,10e-4 0.18655,0.002 0.0103,-0.001 0.0207,-0.002 0.031,-0.003 0.28875,-0.0307 0.5678,-0.10978 0.85059,-0.17156 0.2266,-0.0542 0.45977,-0.0613 0.69092,-0.078 0.47675,-0.0345 0.77863,0.13094 0.90433,0.3514 0.0308,-0.0179 0.0603,-0.0245 0.092,-0.0243 0.005,3e-5 0.0116,0.002 0.017,0.002 0.011,-0.009 0.0275,-0.014 0.0507,-0.0134 0.0121,7.9e-4 0.0245,0.001 0.0367,0.002 0.004,-0.001 0.004,-0.003 0.008,-0.004 0.017,-0.003 0.0351,-0.005 0.0522,-0.005 0.0102,0 0.0207,2.7e-4 0.031,0.002 0.0205,0.002 0.0413,0.006 0.0615,0.0103 0.0235,-0.003 0.0472,-0.006 0.0708,-0.006 0.0258,0 0.0518,0.001 0.0775,-0.002 0.0156,-0.002 0.0307,-0.004 0.046,-0.008 0.004,-8e-4 0.007,-0.002 0.0103,-0.002 10e-4,-1.2e-4 0.002,-2e-5 0.004,0 0.006,7e-5 0.0131,7.9e-4 0.0186,0.002 0.001,-2.6e-4 0.002,-0.003 0.003,-0.004 0.006,-8e-4 0.0119,2.6e-4 0.0176,0.003 0.004,-0.004 0.007,-0.009 0.0124,-0.009 0.002,1e-5 0.004,5.3e-4 0.006,0.001 0.009,0.001 0.0172,0.004 0.0124,-0.007 10e-4,0.002 0.003,0.003 0.004,0.005 0.002,0.004 0.006,0.0141 0.007,0.0181 l 0.003,0.008 c 0.006,0.008 0.0118,0.0168 0.0176,0.0269 0.005,0.009 0.0115,0.0163 0.0165,0.0243 0.006,0.008 0.0116,0.0163 0.0176,0.0243 0.006,0.008 0.0106,0.0184 0.0165,0.0274 0.006,0.008 0.0117,0.0168 0.0176,0.0248 0.007,0.0109 0.0134,0.0215 0.0165,0.0341 0.003,0.0101 0.006,0.0205 0.009,0.0305 0.004,0.0117 0.006,0.0248 0.009,0.0367 0.003,0.0102 0.006,0.0209 0.009,0.031 0.003,0.008 0.005,0.0178 0.008,0.0248 0.004,0.008 0.007,0.0137 0.0103,0.0217 0.002,0.003 0.003,0.007 0.004,0.01 v 5.3e-4 5.3e-4 5.3e-4 5.2e-4 5.3e-4 5.3e-4 5.3e-4 5.3e-4 5.3e-4 5.3e-4 5.3e-4 5.3e-4 5.3e-4 5.3e-4 5.3e-4 5.2e-4 5.3e-4 5.3e-4 5.3e-4 5.3e-4 5.3e-4 l 5.3e-4,5.3e-4 5.3e-4,5.3e-4 5.3e-4,5.3e-4 5.2e-4,5.3e-4 h 5.3e-4 c 0.008,-1e-5 0.0183,10e-4 0.032,0.004 0.008,0.002 0.0159,0.002 0.0238,0.004 0.0446,-0.0208 0.093,-0.0305 0.14159,-0.0372 0.0469,-0.006 0.094,-0.007 0.14108,-0.008 0.0377,-5.3e-4 0.0755,-8e-4 0.11317,-0.001 0.0347,-1.6e-4 0.0361,0.0226 0.0579,0.0331 0.0136,-0.015 0.0292,-0.0236 0.0475,-0.0227 0.0464,0.002 0.10973,0.0595 0.19792,0.1974 0.0124,0.0195 0.0241,0.0393 0.0372,0.0584 0.18497,0.10019 0.27425,0.27028 0.25735,0.44131 0.0992,0.17059 0.14698,0.3412 0.11317,0.48938 0.0875,0.25146 0.15868,0.50777 0.22789,0.76481 0.0907,0.28135 0.12066,0.57624 0.18087,0.86403 0.0819,0.33194 0.11237,0.6723 0.13746,1.01234 0.0435,0.31909 0.0902,0.63754 0.12247,0.95808 0.0136,0.32907 -0.0183,0.65713 -0.078,0.9803 -0.0687,0.33315 -0.2265,0.63184 -0.39274,0.92449 -0.10786,0.18705 -0.22138,0.37201 -0.30799,0.57 -0.007,0.0226 -0.01,0.0462 -0.0165,0.0687 -0.0167,0.0503 -0.0457,0.0956 -0.0636,0.14572 -0.018,0.0479 -0.0373,0.0927 -0.0584,0.13384 -0.0332,0.0784 -0.0537,0.1626 -0.10181,0.23358 -0.046,0.0584 -0.0946,0.11513 -0.14882,0.16588 0.0284,-7.9e-4 0.0568,-0.003 0.0853,-0.003 0.0418,0.002 0.0834,0.008 0.12403,0.0181 0.15292,0.0378 0.11385,0.15856 -10e-4,0.16536 0.004,0.0511 -0.0475,0.10238 -0.14779,0.0925 -0.02,-0.002 -0.0395,-0.004 -0.06,-0.005 -0.0483,0.005 -0.096,0.0146 -0.14417,0.0207 -0.0408,0.003 -0.0819,0.006 -0.12196,0.015 -0.0343,0.01 -0.0672,0.0234 -0.10284,0.0274 -0.0426,0.005 -0.0556,-0.004 -0.0527,-0.0196 -0.003,0.001 -0.002,0.005 -0.005,0.006 -0.002,0.006 -0.004,0.012 -0.007,0.0181 -0.005,0.013 -0.0128,0.0251 -0.0196,0.0372 -0.007,0.0107 -0.011,0.0222 -0.016,0.0341 -0.004,0.0113 -0.008,0.0223 -0.0119,0.0336 -0.004,0.01 -0.009,0.0189 -0.0129,0.0279 -0.004,0.009 -0.01,0.0179 -0.0124,0.0279 -0.004,0.01 -0.008,0.0168 -0.0139,0.0248 -0.002,0.003 7.9e-4,-0.001 -0.003,0.006 -5.3e-4,7.9e-4 -2.6e-4,-5.3e-4 -0.002,0.002 0.0102,0.0547 -0.0422,0.1098 -0.14314,0.0863 -0.009,-0.002 -0.0153,-0.006 -0.0243,-0.003 -0.0258,0.0146 -0.0419,0.0262 -0.0615,0.0243 h -5.3e-4 c -0.008,0.006 -0.0179,0.0103 -0.0284,0.0103 -0.0497,-0.002 -0.0438,-0.0329 -0.0589,-0.0527 -0.005,0.008 -0.009,0.0163 -0.0124,0.0243 -0.0116,0.008 -0.0217,0.0178 -0.0341,0.0248 -0.0315,0.0178 -0.0716,0.014 -0.10439,0.0284 -0.0453,0.0113 -0.0917,0.0186 -0.13849,0.0212 0.004,0.003 0.002,0.003 0.007,0.006 0.006,0.004 0.0211,0.004 0.0191,0.0124 -5.3e-4,0.002 -0.0876,-0.009 -0.13901,-0.015 -0.2012,-0.0139 -0.40301,-0.0156 -0.60461,-0.0186 -0.21268,-0.006 -0.42322,-0.01 -0.63407,0.0186 -0.26159,0.0324 -0.51118,0.1193 -0.76584,0.18397 -0.17129,0.0398 -0.34477,0.0696 -0.51884,0.0925 -0.0268,0.007 -0.0531,0.0184 -0.0801,0.0248 -0.30451,0.0671 -0.60082,0.17708 -0.91261,0.21497 -0.3595,0.078 -0.71919,0.14895 -1.08676,0.17725 -0.44327,0.0313 -0.88847,0.01 -1.33273,0.0155 -0.37665,0 -0.75302,-0.001 -1.12965,-0.001 -0.35696,-2e-5 -0.71416,2.6e-4 -1.07125,0 -0.38123,-0.001 -0.76289,7.9e-4 -1.14412,-0.003 -0.19882,-10e-4 -0.39755,-0.006 -0.59634,-0.008 -0.53507,0.12015 -1.07772,0.13406 -1.62523,0.0956 -0.4757,-0.008 -0.9359,-0.12645 -1.40094,-0.21136 -0.42163,-0.0584 -0.83349,-0.16854 -1.24799,-0.26251 -0.28943,0.0818 -0.66254,0.0292 -0.93741,-0.0987 -0.12926,-0.0601 -0.2394,-0.15409 -0.35915,-0.23151 -0.47614,-0.45425 -0.58252,-1.06324 -0.65061,-1.68672 -0.0447,-0.49013 -0.0535,-0.982 -0.0615,-1.47381 0.0571,-0.46995 0.0525,-0.96726 0.18242,-1.42678 0.0418,-0.14776 0.1006,-0.29057 0.15089,-0.43564 0.14736,-0.3534 0.31551,-0.69558 0.46974,-1.04438 -0.11073,-0.39583 0.0429,-0.67523 0.29455,-0.78134 0.0167,-0.0598 0.0334,-0.11999 0.0491,-0.18036 -0.0277,-0.13161 -0.0561,-0.26263 -0.0837,-0.39429 -0.0194,-0.0226 -0.0384,-0.046 -0.0548,-0.0708 -0.0972,-0.14677 -0.32168,-0.52026 -0.25889,-0.70384 0.0196,-0.0573 0.0443,-0.11198 0.0703,-0.16639 -0.003,-0.0306 0.0136,-0.0366 -0.0527,-0.11938 -0.50862,-0.63561 -0.23516,-1.15081 0.23306,-1.15703 v -0.001 h 5.3e-4 c 0.18339,-0.002 0.39511,0.1075 0.60307,0.28474 0.10596,-0.0487 0.23111,-0.0877 0.37879,-0.11214 0.26487,-0.0438 0.53503,-0.0494 0.80305,-0.0584 0.32448,-0.0101 0.64942,-0.0134 0.97409,-0.0155 0.13738,-0.0283 0.27508,-0.0567 0.41342,-0.0801 0.57825,-0.0722 1.15362,-0.16391 1.72598,-0.2744 0.57138,-0.16623 1.14063,-0.33543 1.72497,-0.44959 0.17925,-0.035 0.34482,-0.049 0.49661,-0.0465 z m 8.61706,1.72702 -0.001,-5.2e-4 -10e-4,5.2e-4 c 2.6e-4,-2e-5 10e-4,-2e-5 0.002,0 z m -0.10491,0.0165 c -8e-4,1.8e-4 -0.002,5.3e-4 -0.003,10e-4 -0.008,0.008 -0.0203,0.0133 -0.0372,0.0155 -0.0233,2.2e-4 -0.0435,-0.003 -0.0605,-0.0155 -0.038,0.05 -0.0993,0.092 -0.20928,0.0961 -0.0407,0.001 -0.0802,0.007 -0.12093,0.006 -0.0184,1.9e-4 -0.0369,-2.1e-4 -0.0553,5.2e-4 -0.009,0.002 -0.018,0.003 -0.0279,0.005 -0.0109,10e-4 -0.0231,-0.002 -0.0341,-0.005 -0.0422,2.5e-4 -0.085,8e-4 -0.12713,-0.003 -0.0352,0.0833 -0.0935,0.16222 -0.1695,0.23461 0.21387,0.56859 -0.26251,1.264 -1.42678,1.25987 l -0.55087,-0.003 c -0.42774,-0.003 -0.85609,-0.007 -1.28365,-0.0191 -0.45956,-0.0142 -0.91838,-0.0361 -1.37717,-0.0667 -0.42796,-0.0247 -0.85556,-0.0257 -1.28416,-0.0217 h -0.72812 v 5.3e-4 c -0.64225,0 -1.07271,-0.21261 -1.29501,-0.49816 -0.34036,0.10282 -0.62383,0.0558 -0.78135,-0.0951 -0.3023,-0.0581 -0.60309,-0.12463 -0.90847,-0.16484 -0.54963,0.10253 -1.10128,0.19457 -1.65623,0.26251 -0.45003,0.0745 -0.89258,0.18936 -1.34307,0.25735 0.0231,0.43534 -0.0767,0.87179 -0.20464,1.28985 -0.20734,0.62083 -0.4915,1.20427 -0.76326,1.79834 -0.17168,0.34267 -0.13301,0.7544 -0.20413,1.12447 0.007,0.43295 0.0138,0.86593 0.0507,1.2976 0.009,0.087 0.0213,0.17286 0.0331,0.2589 0.12747,-0.008 0.25505,-0.007 0.38137,0.0315 0.38758,0.0883 0.77239,0.19268 1.16686,0.2465 0.39316,0.0727 0.77936,0.17791 1.18184,0.18293 0.39562,0.0288 0.78117,0.0282 1.16788,-0.0827 0.48915,-0.12396 0.92994,-0.38195 1.43144,-0.45992 0.47528,-0.033 0.95052,-0.001 1.42524,0.0331 0.45797,0.0413 0.93397,0.0744 1.34617,0.29766 v 0.001 c 0.57411,0.31088 0.87343,0.59609 0.94723,0.84233 0.11385,-10e-4 0.22838,0.007 0.34158,-0.004 0.31181,-0.0232 0.61571,-0.0865 0.92036,-0.15244 0.30286,-0.0414 0.59246,-0.1363 0.8878,-0.20928 0.1816,-0.0425 0.35789,-0.10056 0.53485,-0.15866 0.43719,-0.14351 0.76467,-0.0688 0.94516,0.10027 l 0.0465,-0.006 c 0.19368,-0.0245 0.38748,-0.0327 0.58188,-0.0315 0.0648,2.5e-4 0.12972,0.002 0.19482,0.004 0.2267,0.003 0.45382,0.006 0.68006,0.0238 0.26882,0.0254 0.5257,0.0667 0.70228,0.2961 l -5.3e-4,5.3e-4 c 0.0191,0.0248 0.014,0.0334 0.0279,0.0548 0.0262,-0.0119 0.055,-0.0177 0.0837,-0.0233 0.004,-0.008 0.0126,-0.0188 0.0295,-0.0326 l 0.002,-0.002 c -0.30828,-0.0173 -0.55479,-0.37087 -0.3607,-0.93431 0.0167,-0.0485 0.0334,-0.0972 0.0501,-0.14573 0.11037,-0.26573 0.25051,-0.51593 0.39894,-0.76223 0.10819,-0.19043 0.22011,-0.38041 0.27182,-0.59583 0.0422,-0.22486 0.0657,-0.45135 0.0662,-0.68057 -0.0265,-0.26568 -0.0647,-0.52973 -0.0997,-0.79427 -0.0115,-0.006 -0.0259,-0.008 -0.0351,-0.017 -0.0557,-0.0523 -0.0669,-0.17893 -0.0672,-0.24392 -2.5e-4,-0.089 0.0299,-0.17393 0.0481,-0.26096 -0.0191,-0.18524 -0.0451,-0.36972 -0.091,-0.55087 -0.0526,-0.26747 -0.0842,-0.53917 -0.16588,-0.80047 -0.0773,-0.29254 -0.14033,-0.58945 -0.25838,-0.86972 -0.0276,-0.0828 -0.0624,-0.16167 -0.0956,-0.24132 -0.0114,-0.009 -0.0199,-0.0156 -0.0243,-0.0196 -0.018,-0.01 -0.0334,-0.0178 -0.061,-0.0331 -0.31498,-0.17411 -0.22376,-0.26904 -0.0305,-0.34469 -0.28339,-0.10075 -0.47342,-0.21966 -0.0884,-0.42633 0.0634,-0.034 0.13031,-0.0558 0.19896,-0.0723 0.007,-0.028 0.0201,-0.0627 0.0284,-0.093 -0.0155,-0.0184 -0.0291,-0.0358 -0.0398,-0.0512 -0.005,0.002 -0.0102,0.004 -0.016,0.006 0.005,-0.003 0.0105,-0.005 0.015,-0.008 -0.003,-0.005 -0.0104,-0.012 -0.0124,-0.016 -0.004,0.005 -0.002,0.022 -0.009,0.0176 0.003,0.01 0.005,0.0196 0.008,0.0289 0.001,0.003 2.6e-4,0.005 0.002,0.008 0.0114,0.0405 -0.0272,0.0528 -0.0403,0.0155 -0.011,0.007 -0.0184,0.0257 -0.0248,0.007 -0.006,-0.0229 -0.0131,-0.0452 -0.0191,-0.0682 -0.002,-0.006 -0.004,-0.0135 -0.006,-0.0212 z m -7.48016,3.51451 c 0.0193,10e-4 0.0437,0.0151 0.0703,0.046 0.0118,0.0137 0.0182,0.0301 0.0243,0.0465 0.004,2.7e-4 0.0153,0.002 0.0248,0.003 0.0146,-0.0467 0.0417,-0.0671 0.0672,-0.0687 l 5.3e-4,-5.3e-4 c 0.0321,-0.002 0.0428,0.0451 0.0429,0.0925 0.0166,-0.001 0.0302,0.0108 0.0465,0.0134 0.0172,-5.3e-4 0.0344,-0.002 0.0517,-0.002 0.0137,-0.005 0.0281,-0.009 0.0424,-0.007 0.01,0.001 0.0185,0.002 0.0263,0.005 0.007,-0.0137 0.017,-0.0258 0.0253,-0.0388 0.0295,0.004 0.0614,2.6e-4 0.0899,0.007 2.6e-4,8e-5 7.9e-4,-8e-5 0.001,0 0.0168,0.001 0.0278,0.009 0.0357,0.0196 0.0104,-0.004 0.0153,-0.0175 0.0274,-0.0171 0.0108,0.001 0.0209,0.005 0.0315,0.007 0.0252,0.0102 0.0446,0.0274 0.0615,0.047 0.01,-0.007 0.0203,-0.011 0.031,-0.0129 -1.4e-4,-0.004 -0.001,-0.008 -0.001,-0.0124 0,-0.0157 -0.002,-0.0313 -0.003,-0.047 -5.2e-4,-0.007 0.002,-0.0113 0.006,-0.0124 l -0.001,-5.3e-4 c 2.5e-4,-9e-5 8e-4,1e-4 0.001,0 v 5.3e-4 c 0.004,8e-5 0.008,0.004 0.009,0.0114 0.001,0.016 0.003,0.032 0.003,0.0481 1.1e-4,0.004 5.3e-4,0.007 5.3e-4,0.0109 0.0162,2.6e-4 0.0316,0.006 0.0429,0.016 v -0.002 h 5.3e-4 c 0.003,-5.3e-4 0.003,0.004 0.005,0.007 0.002,0.002 0.005,0.001 0.005,0.006 v 5.3e-4 5.3e-4 c 5.3e-4,5.3e-4 10e-4,8e-4 0.002,0.002 v 5.3e-4 c 0.004,7.9e-4 0.008,0.003 0.009,0.01 0.001,0.006 5.3e-4,0.0116 0.002,0.0176 0,0.004 2.6e-4,0.009 0.001,0.0129 0.001,0.005 5.3e-4,0.009 0.002,0.0134 5.3e-4,0.005 0.001,0.008 0.001,0.0135 1e-5,0.004 -7e-5,0.009 0,0.0129 7e-5,0.005 -6e-5,0.008 5.3e-4,0.0124 0,0.004 0.001,0.007 0.002,0.0114 0.001,0.004 0.002,0.009 0.003,0.0129 0.001,0.004 0.002,0.008 0.002,0.0119 1e-4,0.005 -3e-5,0.009 -5.3e-4,0.0145 -0.001,0.006 -0.002,0.0117 -0.003,0.0176 -2.6e-4,0.005 -1e-4,0.008 0,0.0124 -1e-5,0.004 -5.3e-4,0.007 -5.3e-4,0.0119 -5e-5,0.005 2.3e-4,0.009 0,0.014 -9e-5,0.005 -5.3e-4,0.009 -10e-4,0.0145 -5.3e-4,0.005 -2.3e-4,0.009 0,0.015 0,0.006 5.2e-4,0.0121 10e-4,0.0181 5.3e-4,0.004 8e-4,0.009 5.3e-4,0.015 -2.6e-4,0.008 -0.005,0.0124 -0.009,0.0124 -0.002,0.002 -0.005,0.006 -0.008,0.007 1.1e-4,0.004 -5.3e-4,0.007 -10e-4,0.01 -0.003,0.0159 -0.0195,0.0138 -0.0165,-0.003 5.3e-4,-0.002 0.001,-0.005 0.001,-0.007 1e-5,-5.2e-4 0,-0.001 0,-0.002 -0.003,5.3e-4 -0.007,-8e-4 -0.008,-0.005 -0.006,-0.007 0.003,0.0249 -0.009,0.015 0,-10e-4 -0.001,1.9e-4 -0.002,-0.002 -10e-4,-0.001 -0.002,-2e-4 -0.002,-0.002 -0.002,-0.003 -0.002,-0.006 -0.003,-0.009 -0.002,0.002 -0.006,0.002 -0.009,0.002 -0.001,-1.7e-4 -0.002,-2.4e-4 -0.003,-5.3e-4 -0.001,0 -0.003,-0.001 -0.004,-0.002 -1.8e-4,-1.9e-4 -2.7e-4,-2.7e-4 -5.3e-4,-5.3e-4 -0.004,0.004 -0.009,0.007 -0.0145,0.0103 -1.3e-4,0.003 -5.3e-4,0.006 -0.001,0.009 -9e-5,0.001 -2e-4,0.002 -5.3e-4,0.002 l -0.003,0.005 c -0.007,0.0106 -0.006,-0.005 -0.009,-0.009 -0.0116,0.005 -0.0243,0.007 -0.0377,0.007 -0.0183,0.0155 -0.0327,0.037 -0.0579,0.0429 -0.009,7.9e-4 -0.0142,0.002 -0.0191,0.003 -0.0284,0.0375 -0.0656,0.0679 -0.11627,0.0687 -0.0138,0 -0.0276,-0.004 -0.0413,-0.006 -0.0102,-0.005 -0.0205,-0.01 -0.0305,-0.0155 -0.003,-0.002 -0.0239,-0.0192 -0.0279,-0.0222 -0.001,-0.001 -0.009,-0.009 -0.009,-0.009 0,-0.001 0.002,-0.001 0.003,-0.002 -0.0201,0 -0.0389,0.005 -0.0589,0.007 -0.0421,0.003 -0.0812,-0.003 -0.11938,-0.0217 -0.0274,-0.019 -0.0412,-0.0267 -0.0574,-0.0465 -0.0497,0.11127 -0.0991,0.22264 -0.15348,0.33176 -0.038,0.0725 -0.0193,0.0384 -0.0558,0.10232 -0.0618,0.10806 -0.17381,0.0415 -0.108,-0.0641 0.0357,-0.0572 0.0172,-0.0263 0.0548,-0.0935 0.0345,-0.0665 0.0624,-0.13609 0.0935,-0.20412 -0.0191,0.0252 -0.0357,0.046 -0.0646,0.0822 -0.0516,0.0616 -0.10784,0.12083 -0.18655,0.14573 -0.0418,0.0135 -0.0539,0.01 -0.0966,0.0103 -0.0607,-0.008 -0.11267,-0.0343 -0.14986,-0.0837 -0.018,-0.0239 -0.025,-0.0422 -0.0372,-0.0687 -0.004,-0.0138 -0.009,-0.0272 -0.01,-0.0413 -0.004,-0.0476 0.011,-0.0913 0.0357,-0.1297 -0.009,-0.002 -0.0192,-0.005 -0.0284,-0.008 -0.0264,0.0212 -0.0573,0.0373 -0.0899,0.0424 -0.0124,0.002 -0.0247,5.3e-4 -0.0372,10e-4 -0.0112,-0.003 -0.0228,-0.004 -0.0336,-0.008 -0.0449,-0.016 -0.0679,-0.0452 -0.0729,-0.094 -5.3e-4,-0.006 -5.3e-4,-0.0123 0,-0.0181 -0.009,-0.0127 -0.0105,-0.0292 -0.0165,-0.0434 10e-4,-0.0119 1.4e-4,-0.0244 0.002,-0.0362 0.0103,-0.0569 0.0529,-0.10087 0.094,-0.13797 0.0366,-0.029 0.077,-0.0541 0.12196,-0.0455 0.0392,-0.039 0.0822,-0.075 0.13849,-0.0853 0.0376,-0.007 0.0462,-0.002 0.0832,0.006 0.0119,0.006 0.0247,0.0102 0.0356,0.017 0.0286,0.0188 0.0493,0.0439 0.0651,0.0724 0.0164,-0.004 0.0321,-0.01 0.0486,-0.0124 0.0543,-0.008 0.10937,-0.0138 0.16433,-0.0145 0.0164,-2.5e-4 0.0327,2.7e-4 0.0491,0.002 -0.0112,-0.0545 0.007,-0.0908 0.0398,-0.0889 z m -0.14367,0.41652 c -0.005,0.002 -0.0116,0.003 -0.016,0.007 -0.0187,0.0124 -0.0278,0.02 -0.0367,0.0284 -7.9e-4,0.0204 -0.008,0.0447 -0.0134,0.0579 -0.006,0.0138 -0.0147,0.0258 -0.0227,0.0388 -0.0125,0.008 -0.0232,0.0232 -0.0367,0.0279 -0.002,0.003 -0.005,0.005 -0.007,0.008 0.0201,-0.018 0.0477,-0.0234 0.0651,-0.0429 0.0219,-0.0268 0.0427,-0.0546 0.0636,-0.0822 -0.001,-0.008 -7.9e-4,-0.0177 0.001,-0.03 7.9e-4,-0.004 0.002,-0.008 0.003,-0.0124 z m -0.25579,0.0439 c -0.002,0.002 -0.004,0.003 -0.006,0.004 -0.0231,0.0229 -0.0606,0.0567 -0.0646,0.092 -5.3e-4,0.004 7.9e-4,0.009 0.001,0.0134 0.017,0.0399 0.0278,0.0652 0.0729,0.077 0.007,0.001 0.0147,0.002 0.0217,0.002 0.0387,-0.001 0.0607,-0.0354 0.0889,-0.0589 -0.0214,0.005 -0.0433,0.0174 -0.0641,0.0109 -0.067,-0.0198 -0.0695,-0.0871 -0.0501,-0.14004 z m 1.05988,5.3e-4 c -0.003,0.002 -0.007,0.004 -0.01,0.007 0.003,-10e-4 0.005,-0.003 0.008,-0.004 10e-4,0 0.003,-0.003 0.002,-0.003 z m 6.24769,4.2509 v 5.3e-4 c -0.002,0.001 -0.002,0.004 -0.005,0.006 0.001,2.3e-4 0.002,5.3e-4 0.004,0.001 0.0109,0.002 0.0189,0.009 0.0284,0.0134 0.0125,-0.006 0.0273,-0.009 0.0444,-0.009 0.02,-1.1e-4 0.0429,0.004 0.0682,0.0124 5.3e-4,2.6e-4 0.001,5.3e-4 0.002,0.001 10e-4,-2.5e-4 0.002,-0.002 0.004,-0.002 0.0314,-0.004 0.0687,-0.0121 0.0987,-0.002 0.004,-0.003 0.008,-0.006 0.0124,-0.009 -0.0936,-0.009 -0.20359,-0.0286 -0.25632,-0.0124 z m 0.74672,0.0873 c -0.003,0.004 -0.006,0.008 -0.009,0.0114 0.004,-0.003 0.008,-0.006 0.009,-0.0114 z m 0.008,0.10284 -5.3e-4,5.3e-4 -5.3e-4,0.001 5.3e-4,5.3e-4 c 0,-5.3e-4 -1.6e-4,1.2e-4 5.3e-4,-0.002 z m 0.0491,0.006 c -0.002,0.003 -0.003,0.006 -0.005,0.0114 -0.002,0.005 -0.003,0.0105 -0.005,0.0155 0.003,-0.008 0.006,-0.0162 0.0103,-0.0243 z m -0.67541,0.14211 -0.008,0.008 c 2.5e-4,5.3e-4 0.001,5.3e-4 0.002,0.002 l 5.2e-4,-5.3e-4 0.006,-0.009 z" />
    </clipPath>
    <clipPath
       clipPathUnits="userSpaceOnUse"
       id="clipPath1233">
      <path
         id="path1234"
         style="fill:#ff0000;fill-opacity:1;fill-rule:nonzero;stroke:none;stroke-width:0.264583"
         d="m 125.96854,136.68726 -0.29611,0.001 c 0.007,2.6e-4 0.0142,7.9e-4 0.0212,10e-4 0.0219,0.001 0.0437,0.002 0.0656,0.003 0.022,5.3e-4 0.0436,8e-4 0.0656,0.001 0.026,1.2e-4 0.052,-3e-5 0.078,0 0.0193,0.001 0.0378,5.3e-4 0.0568,-0.003 z m -15.22853,5.3e-4 v 0.0388 c 0.009,-0.0128 0.0167,-0.0258 0.0253,-0.0388 z m 66.82848,0 -51.36689,5.3e-4 c 8e-4,0.001 0.002,0.002 0.003,0.004 5.3e-4,5.3e-4 5.3e-4,0.001 0.001,0.002 7.9e-4,8e-4 0.002,-0.001 0.002,0.002 l 0.006,0.009 c 0.004,0.006 0.008,0.0122 0.0129,0.0181 0.006,0.008 0.0117,0.0169 0.0176,0.0259 0.006,0.008 0.0106,0.0173 0.0165,0.0253 0.007,0.0109 0.0131,0.0221 0.017,0.0346 0.003,0.0101 0.006,0.0205 0.009,0.0305 0.004,0.0117 0.006,0.0238 0.009,0.0357 0.003,0.0102 0.006,0.0199 0.009,0.03 0.003,0.008 0.005,0.0161 0.008,0.0233 0.004,0.008 0.007,0.0142 0.0104,0.0222 0.002,0.004 0.004,0.009 0.005,0.0134 -8e-4,-0.002 -0.002,-0.006 -0.002,-0.003 l -0.002,0.001 c 5.3e-4,0.003 -0.002,0.001 -0.002,0.004 10e-4,-1.8e-4 0.002,-0.001 0.003,-0.001 0.008,-8e-4 0.0202,0.001 0.0372,0.004 0.008,0.002 0.0159,0.002 0.0238,0.004 0.0449,-0.0211 0.0937,-0.0305 0.14263,-0.0372 0.0469,-0.006 0.094,-0.007 0.14108,-0.008 0.0377,-5.3e-4 0.0755,-4e-5 0.11317,-5.3e-4 0.0352,-2e-4 0.0634,0.007 0.0848,0.0176 0.007,-0.003 0.0153,-0.005 0.0238,-0.005 0.0464,0.002 0.10973,0.0595 0.19792,0.19741 0.013,0.0203 0.0249,0.0411 0.0388,0.061 0.1694,0.0924 0.25818,0.24594 0.25786,0.40256 0.11705,0.17853 0.14594,0.35752 0.11369,0.51418 0.0895,0.25455 0.15519,0.5157 0.22531,0.77618 0.0907,0.28138 0.12067,0.57623 0.18087,0.86403 0.0819,0.33196 0.11236,0.67287 0.13746,1.01286 0.0435,0.31909 0.0902,0.63759 0.12247,0.95808 0.0136,0.3291 -0.0183,0.65733 -0.078,0.9803 -0.0687,0.33316 -0.22649,0.63233 -0.39274,0.92501 -0.10692,0.18543 -0.21957,0.36776 -0.30593,0.56379 -0.007,0.0243 -0.0101,0.0502 -0.0176,0.0744 -0.0588,0.17721 -0.11802,0.35722 -0.22375,0.51313 -0.0454,0.0577 -0.0934,0.11357 -0.14677,0.16383 0.0275,-8e-4 0.055,-0.003 0.0827,-0.003 0.0418,0.002 0.0834,0.008 0.12402,0.0186 0.16007,0.0395 0.12877,0.18959 -0.001,0.18242 -0.007,0.045 -0.057,0.0835 -0.14677,0.0744 -0.02,-0.002 -0.0398,-0.004 -0.0599,-0.005 -0.0483,0.005 -0.096,0.0143 -0.14418,0.0202 -0.0408,0.003 -0.082,0.006 -0.12195,0.015 -0.0343,0.01 -0.0672,0.0229 -0.10284,0.0269 -0.0446,0.005 -0.0567,-0.005 -0.0522,-0.0217 -0.003,8e-4 -0.004,0.003 -0.007,0.004 -0.002,0.006 -0.004,0.0125 -0.007,0.0186 -0.005,0.013 -0.0116,0.0246 -0.0186,0.0367 -0.007,0.0107 -0.011,0.0222 -0.016,0.0341 -0.004,0.0113 -0.008,0.0228 -0.0124,0.0341 -0.004,0.01 -0.01,0.0184 -0.015,0.0274 -0.004,0.009 -0.009,0.0179 -0.0119,0.0279 -0.004,0.01 -0.008,0.0168 -0.0129,0.0248 -0.002,0.003 7.9e-4,-0.001 -0.003,0.006 -0.001,0.002 -0.002,0.003 -0.004,0.005 v 0.001 c 0.002,0.0132 -10e-4,0.0256 -0.005,0.0377 h 51.05115 c -0.003,-0.0543 0.014,-0.0718 0.0408,-0.0698 0.003,-0.0115 0.009,-0.0222 0.0124,-0.0336 0.006,-0.0211 0.0119,-0.0422 0.0176,-0.0636 -0.003,-0.0118 -0.002,-0.0243 -0.008,-0.0351 -0.003,-0.007 -0.008,-0.0121 -0.0114,-0.0191 0.001,10e-4 0.005,0.006 0.007,0.008 0.006,0.005 0.0129,0.0114 0.0202,0.0155 2.6e-4,-0.001 7.9e-4,-0.003 0.001,-0.004 0.01,-0.0429 0.0208,-0.0848 0.0305,-0.12764 -0.0977,-0.0167 -0.18859,-0.03 -0.0734,-0.0842 0.0225,-0.0105 0.0435,-0.0255 0.0677,-0.0315 0.0115,-0.003 0.0229,-0.004 0.0341,-0.004 0.002,9e-5 0.004,0.003 0.006,0.004 0.03,-0.0582 0.0748,-0.0864 0.11731,-0.0884 0.0539,-0.002 0.091,0.0502 0.1049,0.12557 0.009,-0.0293 0.017,-0.0587 0.0253,-0.0884 0.0148,-0.0909 0.0328,-0.18221 0.062,-0.26975 0.0196,-0.0504 0.0245,-0.0731 0.046,-0.0744 0.0276,-0.002 0.0814,0.0307 0.22427,0.0837 0.0134,0.005 7.9e-4,0.0291 -0.003,0.0429 -0.004,0.0293 -0.0179,0.074 -0.0264,0.10438 0.015,0.0157 0.0292,0.0353 0.0429,0.0589 0.0426,0.0805 0.0789,0.16456 0.12351,0.24392 0.0457,-0.0685 0.10629,-0.06 0.16691,-0.0553 0.0391,0.009 0.0775,0.0193 0.11524,0.031 0.0339,0.002 0.075,0.0123 0.12092,0.0207 v -0.28629 c 0.0123,-0.22282 -0.0174,-0.53981 0.0796,-0.74672 0.0411,-0.0877 0.0682,-0.20415 0.15607,-0.24495 0.18864,-0.0875 0.40926,-0.0747 0.61391,-0.11214 0.1016,0.10512 0.21803,0.1976 0.30489,0.31523 0.0191,0.0259 0.0282,0.0948 0.0424,0.14418 0.16469,-0.22659 0.3393,-0.44539 0.5178,-0.66094 -0.33121,-0.50598 -0.30368,-0.87507 0.65164,-0.89969 0.0393,-0.001 0.0883,0.002 0.13074,0.002 0.2234,-0.24667 0.44748,-0.49236 0.66972,-0.73949 0.87513,-1.0348 1.71861,-2.09603 2.59778,-3.12694 0.52535,-0.61615 1.07006,-1.00985 1.58646,-1.22164 -0.0279,-7e-5 -0.0558,5.3e-4 -0.0837,0 -0.28725,-0.0172 -0.57433,-0.0393 -0.86041,-0.0698 0.0658,0.41349 -0.30678,0.85092 -1.12552,0.8077 -0.35077,-0.0185 -0.70158,-0.044 -1.05006,-0.0894 -0.3951,-0.0515 -0.78822,-0.12368 -1.18804,-0.12299 -0.14155,-0.005 -0.29582,-0.0268 -0.4377,-0.008 -0.17536,0.0186 -0.34726,0.068 -0.51987,0.10129 -0.45868,0.0949 -0.92894,0.14505 -1.38338,-0.004 -0.43925,-0.17209 -0.74625,-0.38602 -0.93741,-0.81546 -0.034,0.11874 -0.0858,0.26497 -0.20102,0.2713 -0.44996,0.0236 -0.46954,-0.0347 -0.54467,-0.24081 -5.3e-4,0.008 -0.0169,-0.0127 -0.0346,-0.0377 -0.0604,0.17361 -0.25569,0.14544 -0.23926,-0.0858 0.001,-0.012 0.002,-0.0241 0.003,-0.0362 0.006,-0.0734 0.0177,-0.14625 0.0341,-0.21807 -0.0251,-0.0327 -0.0435,-0.081 -0.046,-0.1447 -0.002,-0.0436 -0.001,-0.0866 0.007,-0.1297 0.0135,-0.0538 0.005,-0.027 0.0269,-0.0806 0.005,-0.0123 0.0107,-0.0233 0.0165,-0.0336 z m -52.12498,5.3e-4 c 2.6e-4,1.4e-4 7.9e-4,-2.7e-4 10e-4,5.3e-4 2.6e-4,0 5.3e-4,-5.3e-4 0.001,-5.3e-4 z m 0.67851,0 c 0.009,0.005 0.018,0.0123 0.0248,0.0217 5.3e-4,7.9e-4 10e-4,0.002 0.002,0.003 l 0.002,0.002 c -0.003,-0.009 -0.006,-0.0171 -0.009,-0.0258 z m -13.97899,0.20257 c -0.009,-0.0124 0.0164,0.0257 0.0264,0.0372 l 0.003,0.003 c -0.01,-0.0133 -0.0211,-0.0286 -0.0294,-0.0403 z m 14.0317,0.0129 v 5.3e-4 c 7.9e-4,-6e-5 0.002,2.7e-4 0.005,-5.3e-4 -0.002,0 -0.003,-2e-5 -0.005,0 z m 5.3e-4,0.002 c 0.001,0.002 0.002,0.004 0.004,0.006 -5.3e-4,-0.004 -0.002,-0.005 -0.004,-0.006 z m 52.16426,0.0269 c 0.0248,0.0301 0.0474,0.0607 0.0708,0.0909 -1.4e-4,-5.3e-4 -7e-5,-0.001 -5.3e-4,-0.002 -0.0172,-0.025 -0.0273,-0.046 -0.062,-0.0811 -0.002,-0.002 -0.006,-0.005 -0.008,-0.008 z m -53.24636,0.005 c 0.002,0.001 0.002,0.003 0.004,0.005 5.3e-4,-0.001 5.3e-4,-0.002 10e-4,-0.003 -0.002,-2.6e-4 -0.003,10e-4 -0.005,-0.002 z m 1.1374,0.0331 -10e-4,5.3e-4 -0.001,5.3e-4 -0.004,5.3e-4 -5.3e-4,5.3e-4 c -0.009,0.01 -0.0214,0.0165 -0.0403,0.0191 -0.0233,1.8e-4 -0.0435,-0.004 -0.0605,-0.016 -0.038,0.0501 -0.0988,0.0919 -0.20877,0.0961 -0.0407,0.001 -0.0807,0.007 -0.12144,0.006 -0.0941,10e-4 -0.18835,0.005 -0.28215,-0.005 -0.0229,-0.004 -0.0465,-0.007 -0.0692,-0.0124 -0.0608,-0.0144 -0.11583,-0.044 -0.17312,-0.0677 -0.0236,0.0224 -0.0528,0.035 -0.0837,0.0429 -10e-4,2.6e-4 -0.003,-1.6e-4 -0.004,5.3e-4 0.53922,0.58547 0.14424,1.53969 -1.22525,1.53479 l -0.5519,-0.003 c -0.42772,-0.003 -0.85503,-0.007 -1.28261,-0.0191 -0.45957,-0.0142 -0.91838,-0.036 -1.37718,-0.0662 -0.42798,-0.0247 -0.85655,-0.0257 -1.28519,-0.0217 h -0.72705 v 5.3e-4 c -1.08843,0 -1.5724,-0.60919 -1.45469,-1.15238 -0.47482,0.11102 -0.94049,0.25898 -1.4149,0.37414 -0.58763,0.11137 -1.17783,0.21 -1.77147,0.28267 -0.45004,0.0745 -0.89258,0.18939 -1.34307,0.25734 0.0231,0.43537 -0.0767,0.87187 -0.20464,1.28985 -0.20737,0.62083 -0.49201,1.20439 -0.76378,1.79834 -0.17166,0.34268 -0.13302,0.75416 -0.20412,1.12448 0.007,0.43291 0.0128,0.86592 0.0496,1.29759 0.009,0.087 0.0218,0.17291 0.0336,0.2589 0.12746,-0.008 0.25556,-0.007 0.38189,0.0315 0.38759,0.0883 0.77188,0.19273 1.16634,0.2465 0.39317,0.0727 0.77934,0.17794 1.18184,0.18294 0.39561,0.0288 0.78169,0.0277 1.1684,-0.0832 0.48916,-0.12396 0.92991,-0.38191 1.43144,-0.45992 0.47529,-0.033 0.94999,1.6e-4 1.42472,0.0341 0.45799,0.0413 0.93415,0.0739 1.34617,0.29714 v 5.3e-4 c 0.61728,0.3342 0.9172,0.63945 0.96015,0.89762 0.041,-8e-4 0.082,-2.7e-4 0.12299,-0.002 0.2664,-0.007 0.53288,-0.0162 0.7984,-0.0403 0.32196,-0.0309 0.64207,-0.0772 0.96273,-0.11885 0.30116,-0.0229 0.60241,-0.0533 0.89762,-0.11938 0.29277,-0.0738 0.58002,-0.17288 0.8816,-0.20618 0.19349,-0.0244 0.38746,-0.0323 0.58188,-0.031 0.0648,2.5e-4 0.12975,0.002 0.19482,0.004 0.22674,0.003 0.45382,0.007 0.68006,0.0248 0.20757,0.0196 0.40656,0.0507 0.56844,0.16846 -0.14619,-0.15312 -0.20834,-0.43356 -0.0801,-0.8046 0.0167,-0.0485 0.0329,-0.0972 0.0496,-0.14573 0.11037,-0.26577 0.2505,-0.5159 0.39894,-0.76222 0.10819,-0.19042 0.22011,-0.38044 0.27182,-0.59583 0.0422,-0.22486 0.0667,-0.45135 0.0672,-0.68058 -0.0266,-0.26636 -0.0636,-0.53108 -0.0987,-0.79633 -0.0126,-0.006 -0.027,-0.008 -0.0372,-0.0181 -0.0557,-0.0523 -0.0674,-0.1789 -0.0677,-0.24391 -5.3e-4,-0.10916 0.0186,-0.21645 0.0434,-0.32246 -0.0186,-0.16347 -0.0432,-0.32621 -0.0837,-0.48628 -0.0526,-0.26747 -0.0832,-0.53917 -0.16485,-0.80047 -0.0773,-0.29255 -0.14035,-0.58945 -0.25838,-0.86971 -0.0278,-0.0833 -0.0617,-0.16272 -0.0951,-0.24288 -0.0108,-0.008 -0.0205,-0.0146 -0.0248,-0.0186 -0.018,-0.01 -0.0339,-0.0178 -0.0615,-0.0331 -0.31588,-0.1746 -0.22894,-0.27102 -0.0341,-0.34675 -0.28066,-0.10041 -0.4666,-0.21923 -0.0832,-0.42478 0.0626,-0.0335 0.12863,-0.0549 0.19637,-0.0713 0.007,-0.028 0.0218,-0.064 0.0305,-0.0951 -0.016,-0.0191 -0.029,-0.0365 -0.0398,-0.0522 -0.005,0.002 -0.01,0.004 -0.0155,0.006 0.005,-0.003 0.0105,-0.006 0.015,-0.009 -0.004,-0.006 -0.0136,-0.0152 -0.0155,-0.0202 -0.004,0.006 -0.002,0.0229 -0.009,0.0191 0.003,0.009 0.005,0.0187 0.008,0.0279 0.001,0.003 2.6e-4,0.005 0.002,0.008 0.009,0.033 -0.0146,0.047 -0.031,0.031 -0.009,0.0162 -0.0263,0.0208 -0.0341,-0.0103 -0.006,-0.0229 -0.0126,-0.0452 -0.0186,-0.0682 -0.002,-0.006 -0.004,-0.0136 -0.006,-0.0212 z m 51.78753,0.0661 c -0.0105,2.6e-4 -0.021,-0.001 -0.0315,0.002 -0.0138,0.001 -0.022,0.0179 -0.0341,0.0248 -2.7e-4,2.6e-4 -5.3e-4,4e-5 -0.001,5.3e-4 -0.005,0.004 -0.01,0.008 -0.015,0.0124 -0.0159,0.0126 -0.0357,0.0165 -0.0481,0.0341 0.19571,0.011 0.45443,0.0678 0.53847,0.0279 -0.13248,-0.0507 -0.26954,-0.10418 -0.40878,-0.10129 z m -0.18551,0.0424 v 5.3e-4 c -0.002,0.009 -0.003,0.0185 -0.006,0.0279 0.0103,-4e-5 0.0207,2.2e-4 0.0315,5.2e-4 0.001,-0.006 0.001,-0.0124 0.003,-0.0186 -0.01,-0.002 -0.0193,-0.005 -0.0284,-0.0103 z m -67.08842,1.12293 c -10e-4,-7.9e-4 -0.003,0.002 -0.004,0.003 v 0.0491 c 0.013,0.0235 0.0275,0.0459 0.0233,0.0708 -0.002,0.0119 -0.0125,1e-5 -0.0233,-0.015 v 0.26665 c 0.022,-0.0889 0.0382,-0.17803 0.0341,-0.26975 0,-1.7e-4 -0.0144,-0.0924 -0.03,-0.10438 z m 8.0021,2.29391 c 0.0193,0.001 0.0437,0.0151 0.0703,0.046 0.0118,0.0137 0.0181,0.0301 0.0243,0.0465 0.004,2.6e-4 0.0154,0.002 0.0259,0.003 0.0146,-0.0467 0.0417,-0.0676 0.0672,-0.0692 h 5.3e-4 c 0.0348,-0.002 0.0592,0.0373 0.0538,0.092 0.0152,-2.6e-4 0.0276,0.0106 0.0424,0.0134 0.0146,-5.3e-4 0.0292,-10e-4 0.0439,-0.002 0.0137,-0.005 0.0281,-0.009 0.0424,-0.007 0.01,0.001 0.0185,0.002 0.0263,0.005 0.007,-0.0137 0.017,-0.0259 0.0253,-0.0388 0.0295,0.004 0.0614,2.7e-4 0.0899,0.007 2.6e-4,8e-5 7.9e-4,-8e-5 0.001,0 0.0136,0.001 0.0236,0.006 0.031,0.014 0.0109,-0.004 0.0202,-0.0114 0.0331,-0.0109 0.0108,10e-4 0.0214,0.005 0.032,0.007 0.0252,0.0102 0.0441,0.0274 0.061,0.047 0.01,-0.007 0.0206,-0.011 0.0315,-0.0129 -1.3e-4,-0.004 -5.3e-4,-0.008 -5.3e-4,-0.0119 0,-0.0157 -0.002,-0.0313 -0.003,-0.047 -5.2e-4,-0.007 0.002,-0.0113 0.006,-0.0124 h 5.3e-4 c 0.004,5.3e-4 0.007,0.004 0.008,0.0108 10e-4,0.016 0.003,0.032 0.003,0.0481 1e-4,0.004 -4e-5,0.007 0,0.0108 0.0162,1.8e-4 0.0316,0.006 0.0429,0.0155 l 5.3e-4,-5.3e-4 10e-4,-0.001 c 0.003,-2.6e-4 0.003,0.004 0.004,0.007 8e-4,7.9e-4 0.001,0.002 0.002,0.003 2.6e-4,0.001 0.002,7.9e-4 0.002,0.003 10e-4,0.002 0.003,0.003 0.004,0.005 0.003,0.002 0.006,0.003 0.007,0.008 0.001,0.006 0.001,0.0116 0.002,0.0176 0,0.004 -2.4e-4,0.009 5.3e-4,0.0129 0.001,0.004 5.3e-4,0.009 0.002,0.0134 5.3e-4,0.004 5.3e-4,0.008 5.3e-4,0.0124 0,0.004 -8e-5,0.009 0,0.0129 6e-5,0.005 5e-5,0.009 5.3e-4,0.0145 0,0.004 -0.001,0.007 0.002,0.0103 0.001,0.004 0.002,0.009 0.003,0.0129 0.001,0.004 0.002,0.008 0.002,0.0119 9e-5,0.005 -5.3e-4,0.009 -0.001,0.015 -0.001,0.006 -0.002,0.0112 -0.003,0.0171 -2.6e-4,0.005 -9e-5,0.008 0,0.0124 0,0.004 -5.3e-4,0.008 -5.3e-4,0.0124 -6e-5,0.005 2.1e-4,0.009 0,0.0139 -9e-5,0.005 -5.3e-4,0.009 -0.001,0.0145 -5.3e-4,0.005 -2.4e-4,0.009 0,0.0145 0,0.006 5.3e-4,0.0121 0.001,0.0181 5.3e-4,0.004 8e-4,0.009 5.3e-4,0.0145 -2.6e-4,0.008 -0.005,0.0124 -0.009,0.0124 -0.002,0.003 -0.005,0.006 -0.008,0.007 1.3e-4,0.004 -5.3e-4,0.007 -0.001,0.0103 -0.003,0.0159 -0.019,0.0178 -0.016,-0.003 5.3e-4,-0.002 10e-4,-0.005 10e-4,-0.007 2e-5,-5.3e-4 0,-5.3e-4 0,-0.002 -0.003,1.8e-4 -0.006,-0.002 -0.008,-0.006 l -5.3e-4,5.3e-4 v 5.3e-4 c -0.006,-0.007 0.003,0.0249 -0.009,0.015 0,-0.001 -5.3e-4,-2.6e-4 -0.002,-0.002 -10e-4,-0.001 -0.002,-0.001 -0.002,-0.002 -0.002,-0.003 -0.002,-0.006 -0.003,-0.009 -0.002,0.002 -0.005,0.002 -0.008,0.002 -0.001,-1.3e-4 -0.002,-9e-5 -0.003,-5.3e-4 -0.001,0 -0.003,-10e-4 -0.004,-0.002 -1.3e-4,-9e-5 1.2e-4,-5.3e-4 0,-5.3e-4 -0.004,0.004 -0.009,0.007 -0.0139,0.0103 -1.5e-4,0.003 -5.3e-4,0.006 -0.001,0.009 -9e-5,0.001 -2e-4,0.002 -5.3e-4,0.002 l -0.003,0.005 c -0.007,0.0106 -0.006,-0.005 -0.009,-0.009 -0.0118,0.005 -0.0246,0.007 -0.0382,0.007 -0.0183,0.0155 -0.0327,0.037 -0.0579,0.0429 -0.009,7.9e-4 -0.0142,0.002 -0.0191,0.003 -0.0284,0.0375 -0.0656,0.0679 -0.11628,0.0687 -0.0138,0 -0.0276,-0.004 -0.0413,-0.006 -0.0102,-0.005 -0.0205,-0.01 -0.0305,-0.0155 -0.003,-0.002 -0.0239,-0.0192 -0.0279,-0.0222 -0.001,-10e-4 -0.009,-0.009 -0.009,-0.009 0,-0.001 0.002,-0.001 0.003,-0.002 -0.0201,0 -0.0389,0.005 -0.0589,0.007 -0.0421,0.003 -0.0812,-0.003 -0.11938,-0.0217 -0.0274,-0.019 -0.0412,-0.0267 -0.0574,-0.0465 -0.0497,0.11127 -0.0991,0.22264 -0.15347,0.33176 -0.038,0.0725 -0.0193,0.0384 -0.0558,0.10232 -0.0618,0.10806 -0.17381,0.0415 -0.108,-0.0641 0.0357,-0.0572 0.0172,-0.0263 0.0548,-0.0935 0.0339,-0.0654 0.0613,-0.13369 0.092,-0.2005 -0.0179,0.0235 -0.0343,0.0439 -0.062,0.0785 -0.0515,0.0616 -0.10785,0.12083 -0.18655,0.14573 -0.0418,0.0135 -0.054,0.01 -0.0966,0.0103 -0.0607,-0.008 -0.11266,-0.0343 -0.14986,-0.0837 -0.018,-0.0239 -0.025,-0.0422 -0.0372,-0.0687 -0.004,-0.0138 -0.009,-0.0266 -0.01,-0.0408 -0.004,-0.0473 0.0107,-0.0909 0.0351,-0.12919 -5.3e-4,-5.3e-4 -0.002,-5.3e-4 -0.002,-10e-4 -0.009,-0.002 -0.0173,-0.005 -0.0259,-0.008 -0.0264,0.0212 -0.0573,0.0373 -0.0899,0.0424 -0.0124,0.002 -0.0247,5.3e-4 -0.0372,0.001 -0.0112,-0.003 -0.0228,-0.004 -0.0336,-0.008 -0.0449,-0.016 -0.0679,-0.0452 -0.0729,-0.094 -5.3e-4,-0.006 -5.3e-4,-0.0128 0,-0.0186 -0.009,-0.0127 -0.0104,-0.0286 -0.0165,-0.0429 0.001,-0.0119 1.3e-4,-0.0249 0.002,-0.0367 0.0103,-0.0569 0.053,-0.10088 0.0941,-0.13798 0.0366,-0.029 0.077,-0.0541 0.12196,-0.0455 0.0392,-0.039 0.0822,-0.075 0.13849,-0.0853 0.0376,-0.007 0.0462,-0.002 0.0832,0.006 0.0119,0.006 0.0247,0.0102 0.0357,0.017 0.0284,0.0187 0.0488,0.0437 0.0646,0.0718 0.0164,-0.004 0.0321,-0.01 0.0486,-0.0124 0.0543,-0.008 0.10937,-0.0137 0.16433,-0.0145 0.0166,-2.5e-4 0.0331,10e-4 0.0496,0.002 -0.0113,-0.0545 0.007,-0.0908 0.0398,-0.0889 z m -0.14366,0.41652 c -0.005,0.002 -0.0116,0.003 -0.016,0.007 -0.0187,0.0123 -0.0278,0.02 -0.0367,0.0284 -8e-4,0.0204 -0.008,0.0447 -0.0135,0.0579 -0.006,0.0138 -0.0147,0.0258 -0.0227,0.0388 -0.0125,0.008 -0.0232,0.0232 -0.0367,0.0279 -0.004,0.004 -0.008,0.008 -0.0114,0.0124 -0.0229,0.004 -0.0464,0.0189 -0.0687,0.0119 -0.067,-0.0198 -0.0696,-0.0871 -0.0501,-0.14004 -0.002,0.002 -0.004,0.003 -0.006,0.004 -0.0231,0.0229 -0.0606,0.0567 -0.0646,0.092 -5.3e-4,0.004 7.9e-4,0.009 10e-4,0.0134 0.017,0.0399 0.0278,0.0652 0.0729,0.077 0.007,10e-4 0.0147,0.002 0.0217,0.002 0.0708,-0.002 0.11929,-0.0587 0.16279,-0.10748 0.0219,-0.0268 0.0427,-0.0546 0.0636,-0.0822 -0.001,-0.008 -8e-4,-0.0177 10e-4,-0.03 8e-4,-0.004 0.002,-0.008 0.003,-0.0124 z m 0.80409,0.0444 c -0.003,0.002 -0.007,0.004 -0.01,0.007 0.003,-10e-4 0.005,-0.003 0.008,-0.004 0.001,0 0.003,-0.003 0.002,-0.003 z m 66.71995,2.61172 c -0.11728,0.14263 -0.23464,0.28571 -0.35243,0.42789 0.15776,0.0281 0.31467,0.0582 0.47284,0.0832 -0.0446,-0.19302 -0.0308,-0.13283 -0.0982,-0.41186 -0.007,-0.0293 -0.0147,-0.0656 -0.0222,-0.0992 z m -74.86933,0.43254 -0.001,5.3e-4 c -0.005,-8e-5 -0.01,0.0103 -0.009,0.0109 0.0367,0.002 0.0738,-8e-4 0.11059,-0.002 -0.0332,-0.006 -0.067,-0.008 -0.10078,-0.009 z m 66.72358,0.74104 c -0.002,0.003 -0.005,0.0111 -0.002,0.0119 0.001,-0.005 0.002,-0.006 0.003,-0.0119 2.5e-4,-10e-4 -5.3e-4,-7.9e-4 -0.001,0 z m -51.56481,0.0858 v 5.3e-4 c 0.0443,0.0334 0.0874,0.0704 0.12505,0.11937 l -5.3e-4,5.3e-4 c 0.0201,0.0262 0.0152,0.0356 0.0294,0.0579 0.0271,-0.0126 0.0566,-0.0186 0.0863,-0.0243 0.004,-0.008 0.0128,-0.0174 0.0279,-0.03 7.9e-4,-8e-4 0.002,-5.3e-4 0.003,-0.002 -0.102,-0.005 -0.19642,-0.0474 -0.2713,-0.12196 z m -0.67025,0.36845 -5.3e-4,5.3e-4 c -0.0428,7.9e-4 -0.078,0.006 -0.10439,0.0176 0.004,5.3e-4 0.008,-5.2e-4 0.0119,0.002 0.0107,0.002 0.0186,0.008 0.0279,0.0124 0.0126,-0.006 0.0277,-0.009 0.045,-0.009 0.02,-1.1e-4 0.0429,0.004 0.0682,0.0129 7.9e-4,2.4e-4 0.002,7.9e-4 0.003,10e-4 0.001,-2.3e-4 0.002,-0.002 0.003,-0.002 0.0314,-0.004 0.0687,-0.0145 0.0987,-0.002 0.008,-0.006 0.0164,-0.0106 0.0243,-0.016 -0.0609,-0.007 -0.12984,-0.019 -0.17673,-0.0181 z m 0.65474,0.0987 c -0.003,0.004 -0.006,0.009 -0.009,0.0124 0.004,-0.003 0.008,-0.007 0.009,-0.0124 z m -0.006,0.11266 c -2.6e-4,1e-4 -2.7e-4,1.9e-4 -0.001,5.3e-4 l 0.001,5.3e-4 c 2.5e-4,-0.001 5.3e-4,-8e-4 5.3e-4,-0.001 z m 51.20204,0.0228 c -0.009,0.005 -0.0169,0.0105 -0.0253,0.015 0.009,0.003 0.0178,0.007 0.0274,0.0103 -2.6e-4,-0.009 10e-4,-0.0168 -0.002,-0.0253 z" />
    </clipPath>
    <clipPath
       clipPathUnits="userSpaceOnUse"
       id="clipPath1236">
      <path
         id="path1237"
         style="fill:#ff0000;fill-opacity:1;fill-rule:nonzero;stroke:none;stroke-width:0.264583"
         d="m 108.54841,131.26899 v 20.18792 h 19.00711 v -7.58611 c -0.0584,0.10175 -0.11334,0.20519 -0.16123,0.31213 -0.008,0.0286 -0.0149,0.0574 -0.0238,0.0858 -0.0588,0.17725 -0.11802,0.35726 -0.22376,0.51315 -0.0449,0.0571 -0.0925,0.11241 -0.14521,0.16226 0.0264,-7.9e-4 0.0527,-0.002 0.0791,-0.002 0.0418,0.002 0.0834,0.008 0.12402,0.0181 0.16222,0.0401 0.13394,0.20101 -0.001,0.18914 -0.01,0.0429 -0.0599,0.0789 -0.14625,0.0703 -0.02,-0.002 -0.0389,-0.004 -0.0589,-0.005 -0.0483,0.005 -0.096,0.0142 -0.14418,0.0202 -0.0408,0.003 -0.082,0.006 -0.12195,0.015 -0.0343,0.01 -0.0672,0.0229 -0.10284,0.0269 -0.0493,0.005 -0.0589,-0.007 -0.0501,-0.0274 -0.004,0.001 -0.006,0.004 -0.0103,0.006 -0.002,0.006 -0.004,0.0125 -0.007,0.0186 -0.005,0.013 -0.0122,0.0246 -0.0191,0.0367 -0.007,0.0107 -0.011,0.0222 -0.016,0.0341 -0.004,0.0113 -0.008,0.0228 -0.0124,0.0341 -0.004,0.01 -0.009,0.0184 -0.0134,0.0274 -0.004,0.009 -0.009,0.0184 -0.0119,0.0284 -0.004,0.01 -0.008,0.0168 -0.0134,0.0248 -0.002,0.003 8e-4,10e-4 -0.003,0.006 -2.6e-4,5.3e-4 2e-4,5.3e-4 -5.3e-4,0.002 0.009,0.0543 -0.0434,0.10717 -0.14366,0.0853 -0.009,-0.002 -0.0153,-0.006 -0.0243,-0.003 -0.0258,0.0146 -0.0419,0.0262 -0.0615,0.0243 h -5.3e-4 c -0.008,0.006 -0.0179,0.0114 -0.0284,0.0114 -0.0378,-0.002 -0.06,-0.01 -0.0775,-0.0217 -0.009,0.007 -0.018,0.0148 -0.0279,0.0207 -0.0315,0.0178 -0.0711,0.0141 -0.10387,0.0284 -0.0455,0.0113 -0.0921,0.0191 -0.13901,0.0217 0.004,0.003 0.003,0.002 0.007,0.005 0.006,0.004 0.0201,0.004 0.0181,0.0114 -5.3e-4,0.002 -0.0866,-0.008 -0.13797,-0.0124 -0.2012,-0.0139 -0.40352,-0.0166 -0.60513,-0.0196 -0.21268,-0.006 -0.42324,-0.009 -0.63407,0.0191 -0.26161,0.0324 -0.51172,0.11979 -0.76636,0.18448 -0.16618,0.0386 -0.334,0.0668 -0.50282,0.0894 -0.0318,0.008 -0.0631,0.0192 -0.0951,0.0269 -0.30455,0.0671 -0.6013,0.17658 -0.91312,0.21445 -0.3595,0.078 -0.71867,0.14895 -1.08624,0.17725 -0.44347,0.0313 -0.889,0.01 -1.33325,0.016 -0.37665,0 -0.75301,-5.3e-4 -1.12965,-5.3e-4 -0.35695,-6e-5 -0.71415,2.5e-4 -1.07125,0 -0.38123,-0.001 -0.76237,7.9e-4 -1.1436,-0.003 -0.19744,-0.001 -0.39535,-0.005 -0.59273,-0.007 -0.53621,0.12085 -1.08013,0.13331 -1.62884,0.0951 -0.4757,-0.008 -0.93542,-0.12542 -1.40043,-0.21032 -0.42163,-0.0584 -0.83453,-0.16904 -1.24902,-0.26303 -0.28944,0.0818 -0.66254,0.0292 -0.93741,-0.0987 -0.12926,-0.0602 -0.23838,-0.15463 -0.35812,-0.23201 -0.47612,-0.4543 -0.58353,-1.06274 -0.65164,-1.68621 -0.0447,-0.49007 -0.0535,-0.98253 -0.0615,-1.47432 0.0571,-0.47004 0.0525,-0.96671 0.18242,-1.42627 0.0418,-0.14773 0.10111,-0.2906 0.15141,-0.43564 0.14369,-0.34468 0.30767,-0.67943 0.45889,-1.01905 -0.13212,-0.41842 0.0449,-0.71277 0.30851,-0.81909 0.0156,-0.0553 0.0315,-0.11054 0.046,-0.16638 -0.0279,-0.13254 -0.0559,-0.26488 -0.0837,-0.39741 -0.0191,-0.0223 -0.0387,-0.0456 -0.0548,-0.0703 -0.0972,-0.14678 -0.32169,-0.5197 -0.2589,-0.70331 0.0216,-0.0632 0.0478,-0.12377 0.077,-0.18346 -7.9e-4,-0.0188 -0.005,-0.0312 -0.0615,-0.10232 -0.50862,-0.63568 -0.23464,-1.15184 0.23358,-1.15807 v -0.001 h 10e-4 c 0.19083,-0.002 0.41418,0.0813 0.62994,0.27441 0.10067,-0.0434 0.21591,-0.0793 0.35191,-0.10181 0.26507,-0.0438 0.53504,-0.0494 0.80306,-0.0584 0.32467,-0.0101 0.64976,-0.0134 0.97461,-0.0155 0.13736,-0.0283 0.27508,-0.0563 0.41342,-0.0796 0.57827,-0.0722 1.15366,-0.16391 1.72599,-0.2744 0.57141,-0.16624 1.14061,-0.33551 1.72496,-0.44958 0.18019,-0.0353 0.34677,-0.0493 0.49919,-0.0465 v 5.3e-4 h 5.3e-4 5.3e-4 l 5.3e-4,10e-4 -5.3e-4,5.3e-4 -5.3e-4,5.3e-4 v 0.001 c 0.68614,0.0126 1.08367,0.37626 1.13791,0.79375 0.3115,-0.10252 0.62568,-0.19687 0.94155,-0.28422 0.40528,-0.12231 0.82268,-0.16685 1.24178,-0.16433 v -0.001 c 0.1397,7.9e-4 0.27931,0.007 0.4191,0.016 0.45122,0.0334 0.8731,0.16991 1.16582,0.53485 0.054,0.0672 0.0937,0.14516 0.14056,0.21756 0.0503,0.0776 0.0868,0.15335 0.11524,0.22738 0.063,7.9e-4 0.12608,-0.001 0.18913,0.002 0.009,-0.001 0.0183,-0.002 0.0274,-0.003 0.28873,-0.0307 0.5678,-0.10979 0.8506,-0.17156 0.22661,-0.0542 0.45971,-0.0608 0.69091,-0.0775 0.47632,-0.0345 0.78051,0.13072 0.9064,0.35089 0.03,-0.017 0.059,-0.0245 0.0899,-0.0243 0.005,0 0.0104,0.002 0.0155,0.002 0.0111,-0.008 0.0268,-0.0134 0.0491,-0.0129 0.012,7.9e-4 0.0251,-10e-4 0.0372,0.002 0.004,-0.001 0.005,-0.004 0.009,-0.005 0.017,-0.003 0.0341,-0.005 0.0512,-0.005 0.0102,0 0.0202,5.3e-4 0.0305,0.002 0.0208,0.002 0.0415,0.005 0.062,0.0104 0.023,-0.003 0.0465,-0.005 0.0693,-0.005 0.0258,0 0.0513,0.001 0.077,-0.002 0.0156,-0.002 0.0312,-0.004 0.0465,-0.008 0.004,-7.9e-4 0.007,-0.002 0.0119,-0.002 0.001,-9e-5 0.002,0 0.004,0 0.005,5e-5 0.0103,8e-4 0.015,0.002 0.002,-7.9e-4 0.004,-0.003 0.006,-0.004 h 0.001 c -0.001,-0.004 0.002,-0.005 0.0103,-0.004 0.003,-0.002 0.007,-0.003 0.0119,-0.003 0.005,8e-5 0.0101,0.002 0.016,0.007 0.004,-10e-4 0.006,-0.004 0.002,-0.0134 -2.6e-4,-0.001 -5.3e-4,-0.003 -5.3e-4,-0.002 l 0.004,-0.002 c 0.002,0.003 0.004,0.006 0.005,0.009 0.002,0.004 0.006,0.0141 0.007,0.0181 l 0.003,0.008 c 0.006,0.008 0.0123,0.0171 0.0181,0.0269 0.005,0.009 0.011,0.0168 0.016,0.0248 0.006,0.008 0.0116,0.0163 0.0176,0.0243 0.006,0.008 0.0122,0.0157 0.0181,0.0248 0.006,0.008 0.0101,0.0173 0.016,0.0253 0.007,0.0109 0.0144,0.0216 0.0176,0.0341 0.003,0.0101 0.006,0.021 0.009,0.031 0.004,0.0117 0.006,0.0223 0.009,0.0341 0.003,0.0102 0.006,0.0204 0.009,0.0305 0.003,0.008 0.005,0.0172 0.008,0.0243 0.004,0.008 0.007,0.0137 0.0114,0.0217 0.002,0.004 0.004,0.009 0.005,0.0129 -8e-4,-0.002 -0.002,-0.006 -0.002,-0.003 l -0.002,5.3e-4 c 5.3e-4,0.002 -5.2e-4,0.003 -5.2e-4,0.005 0.001,-2.6e-4 0.003,1.6e-4 0.004,-5.3e-4 0.008,-7.9e-4 0.0202,0.001 0.0372,0.004 0.008,0.002 0.0162,0.002 0.0243,0.004 0.0446,-0.0208 0.093,-0.03 0.14159,-0.0367 0.0469,-0.006 0.094,-0.007 0.14108,-0.008 0.0377,-5.3e-4 0.0755,-7.9e-4 0.11317,-0.001 0.0334,-2.1e-4 0.0613,0.006 0.0827,0.016 0.007,-0.003 0.0147,-0.004 0.0233,-0.004 0.0464,0.002 0.10974,0.0595 0.19792,0.19741 0.0132,0.0207 0.0263,0.0417 0.0403,0.062 0.16727,0.0922 0.2545,0.24207 0.25477,0.39739 0.11577,0.17611 0.14578,0.35479 0.11575,0.51005 0.0192,0.0553 0.0414,0.10989 0.0584,0.16588 v -6.99957 z m 17.66714,5.71128 c -0.008,0.006 -0.0186,0.01 -0.0325,0.0114 -0.0195,1.8e-4 -0.0373,-0.002 -0.0522,-0.0103 -0.0385,0.0485 -0.10833,0.0863 -0.21601,0.0904 -0.0407,0.001 -0.0807,0.007 -0.12143,0.006 -0.0184,1.8e-4 -0.0369,8e-4 -0.0553,0.001 -0.009,0.002 -0.018,0.003 -0.0279,0.005 -0.0109,0.001 -0.0226,-0.002 -0.0336,-0.005 -0.0337,1.9e-4 -0.0671,-5.3e-4 -0.10077,-0.002 -0.0324,0.0949 -0.0943,0.18544 -0.18604,0.26355 0.18619,0.56273 -0.29233,1.23347 -1.43609,1.22939 l -0.55138,-0.003 c -0.42772,-0.003 -0.85501,-0.007 -1.28261,-0.0186 -0.45958,-0.0142 -0.91887,-0.0367 -1.3777,-0.0672 -0.42796,-0.0247 -0.85605,-0.0257 -1.28467,-0.0217 h -0.72761 v 5.3e-4 c -0.63419,0 -1.06253,-0.20721 -1.28726,-0.48731 -0.34803,0.10969 -0.62984,0.0468 -0.78961,-0.10697 -0.30014,-0.0577 -0.5986,-0.12471 -0.90176,-0.16485 -0.55168,0.10296 -1.1054,0.19533 -1.66243,0.26355 -0.45004,0.0745 -0.89258,0.18943 -1.34307,0.25735 0.0231,0.43541 -0.0767,0.87174 -0.20464,1.28984 -0.20737,0.62081 -0.49148,1.20425 -0.76326,1.79834 -0.17168,0.34266 -0.13252,0.75419 -0.2036,1.12448 0.007,0.43294 0.0128,0.86598 0.0496,1.2976 0.009,0.087 0.0218,0.17289 0.0336,0.25889 0.12747,-0.008 0.25449,-0.007 0.38085,0.031 0.38758,0.0882 0.77239,0.19321 1.16686,0.24701 0.39316,0.0727 0.77936,0.17794 1.18184,0.18294 0.39561,0.0288 0.78118,0.0277 1.16788,-0.0832 0.48915,-0.12396 0.93044,-0.38193 1.43196,-0.45992 0.47529,-0.033 0.95,1.9e-4 1.42472,0.0341 0.45802,0.0413 0.93397,0.0739 1.34617,0.29713 v 5.3e-4 c 0.58382,0.31608 0.88457,0.60624 0.95188,0.85525 0.11281,-10e-4 0.22479,-0.006 0.33693,-0.016 0.31183,-0.0232 0.61568,-0.086 0.92036,-0.15193 0.30283,-0.0414 0.59248,-0.13631 0.8878,-0.20929 0.18161,-0.0425 0.3579,-0.10055 0.53485,-0.15865 0.43755,-0.14364 0.7658,-0.0696 0.94619,0.0997 0.0152,-0.002 0.0308,-0.005 0.046,-0.006 0.19345,-0.0244 0.38743,-0.0327 0.58187,-0.0315 0.0648,2.4e-4 0.12973,0.002 0.19482,0.004 0.22671,0.003 0.45382,0.006 0.68006,0.0222 0.20122,0.019 0.39584,0.047 0.55501,0.15606 -0.13571,-0.1562 -0.19121,-0.42955 -0.0677,-0.78806 0.0167,-0.0485 0.0334,-0.0972 0.0501,-0.14573 0.11037,-0.26574 0.2505,-0.51594 0.39894,-0.76223 0.10818,-0.19044 0.22012,-0.3804 0.27182,-0.59583 0.0422,-0.22485 0.0656,-0.45136 0.0661,-0.68058 -0.0265,-0.26497 -0.0642,-0.52834 -0.0992,-0.7922 -0.0134,-0.007 -0.0274,-0.012 -0.0382,-0.0222 -0.0557,-0.0523 -0.0669,-0.17891 -0.0672,-0.24391 -5.3e-4,-0.10862 0.0192,-0.21518 0.0439,-0.32091 -0.0186,-0.16399 -0.0435,-0.32725 -0.0842,-0.48783 -0.0526,-0.26747 -0.0842,-0.53916 -0.16588,-0.80046 -0.0773,-0.29254 -0.14034,-0.58945 -0.25839,-0.86972 -0.0277,-0.0831 -0.0623,-0.16241 -0.0956,-0.24236 -0.0112,-0.009 -0.02,-0.0151 -0.0243,-0.0191 -0.018,-0.01 -0.0334,-0.0178 -0.061,-0.0331 -0.31735,-0.17541 -0.23884,-0.27303 -0.0413,-0.34882 -0.27734,-0.0999 -0.45857,-0.21817 -0.0775,-0.4222 0.0626,-0.0335 0.12862,-0.0554 0.19637,-0.0718 0.006,-0.0279 0.0212,-0.064 0.03,-0.0951 -0.0154,-0.0184 -0.0292,-0.0366 -0.0403,-0.0522 -0.005,0.002 -0.01,0.003 -0.015,0.006 0.004,-0.003 0.009,-0.005 0.0129,-0.008 -0.002,-0.003 -0.005,-0.006 -0.007,-0.009 -0.004,0.008 -0.0105,0.01 -0.0186,0.005 0.003,0.01 0.005,0.0204 0.008,0.03 0.001,0.003 2.7e-4,0.005 0.002,0.008 0.008,0.0284 -0.008,0.0434 -0.0243,0.0367 h -5.3e-4 c -0.008,0.0185 -0.0327,0.0163 -0.0408,-0.015 -0.006,-0.0218 -0.0128,-0.0432 -0.0186,-0.0651 -0.006,-0.002 -0.009,-0.01 -0.0124,-0.0181 z m -7.47034,3.51606 h 0.001 c 0.0193,0.001 0.0437,0.0151 0.0703,0.046 0.0118,0.0137 0.0182,0.0301 0.0243,0.0465 0.004,2.7e-4 0.0155,0.001 0.0269,0.003 0.0146,-0.0463 0.0418,-0.0671 0.0672,-0.0687 0.0351,-7.9e-4 0.0649,0.0355 0.0579,0.0915 0.0239,0 0.0474,0.005 0.0698,0.0124 0.004,-1.6e-4 0.008,-2.6e-4 0.0119,-5.3e-4 0.0137,-0.005 0.0281,-0.009 0.0424,-0.007 0.01,0.001 0.0185,0.002 0.0264,0.005 0.007,-0.0137 0.017,-0.0258 0.0253,-0.0388 0.0295,0.004 0.0614,2.7e-4 0.0899,0.007 2.6e-4,8e-5 7.9e-4,-8e-5 0.001,0 0.0136,0.001 0.0235,0.006 0.031,0.0139 0.0108,-0.004 0.0199,-0.0113 0.0326,-0.0108 0.0108,0.001 0.0214,0.005 0.032,0.007 0.0252,0.0102 0.0441,0.0274 0.061,0.047 0.009,-0.007 0.0199,-0.0109 0.0305,-0.0129 -6e-5,-0.004 10e-5,-0.008 0,-0.0114 0,-0.0157 -0.002,-0.0313 -0.003,-0.047 -5.3e-4,-0.007 0.002,-0.0113 0.006,-0.0124 5.3e-4,-1.4e-4 8e-5,-5.3e-4 0.002,-5.3e-4 0.004,5.3e-4 0.007,0.004 0.008,0.0109 0.001,0.016 0.003,0.0319 0.003,0.0481 9e-5,0.004 -5e-5,0.007 0,0.0108 0.0175,5.3e-4 0.0341,0.007 0.0455,0.0186 5.3e-4,-5.2e-4 5.3e-4,-10e-4 0.001,-0.002 0.003,7.9e-4 0.006,0.003 0.006,0.009 v 5.2e-4 c 0.004,-5.2e-4 0.0105,0.004 0.0124,0.0119 10e-4,0.006 -0.001,0.0121 0.002,0.0181 0,0.004 2.6e-4,0.009 0.001,0.0129 10e-4,0.004 5.3e-4,0.009 0.002,0.0129 5.3e-4,0.005 0.001,0.008 0.001,0.0135 0,0.004 -8e-5,0.009 0,0.0129 8e-5,0.005 2e-5,0.009 5.3e-4,0.014 0,0.004 10e-4,0.007 0.002,0.0108 0.001,0.004 0.002,0.009 0.003,0.0129 0.001,0.004 0.002,0.008 0.002,0.0119 1e-4,0.005 -5.3e-4,0.009 -10e-4,0.0145 -0.001,0.006 -0.002,0.0112 -0.003,0.0171 -2.6e-4,0.005 -9e-5,0.008 0,0.0124 0,0.004 -0.001,0.008 -0.001,0.0124 -6e-5,0.005 2.2e-4,0.009 0,0.0134 -9e-5,0.005 -2e-5,0.009 -5.3e-4,0.015 -5.3e-4,0.005 -2.4e-4,0.009 0,0.0145 0,0.006 3e-5,0.0121 5.3e-4,0.0181 5.3e-4,0.004 0.001,0.009 0.001,0.0145 -2.6e-4,0.0102 -0.008,0.0139 -0.0124,0.0114 -0.001,0.003 -0.003,0.008 -0.005,0.008 v 5.3e-4 c 1.1e-4,0.004 -5.3e-4,0.007 -10e-4,0.0104 -0.003,0.0159 -0.019,0.0133 -0.016,-0.003 5.3e-4,-0.002 5.3e-4,-0.005 5.3e-4,-0.007 3e-5,-10e-4 0,-0.002 0,-0.003 -0.003,1.7e-4 -0.006,-0.002 -0.007,-0.005 -0.006,-0.007 0.003,0.0249 -0.009,0.015 0,-0.001 10e-4,-2.7e-4 -0.002,-0.002 -10e-4,-0.001 -0.002,8e-4 -0.002,-0.002 -0.002,-0.003 -0.003,-0.007 -0.004,-0.0114 -0.003,0.002 -0.007,0.004 -0.0103,0.004 -10e-4,-1.4e-4 -0.002,-1.1e-4 -0.003,-5.3e-4 -7.9e-4,0 -0.003,-8e-4 -0.004,-0.002 -0.005,0.004 -0.0101,0.008 -0.0155,0.0114 -1.9e-4,0.002 -2.2e-4,0.004 -5.3e-4,0.006 -9e-5,10e-4 -1.9e-4,0.002 -5.3e-4,0.002 l -0.003,0.005 c -0.006,0.009 -0.006,-5.3e-4 -0.007,-0.008 -0.0122,0.005 -0.0255,0.008 -0.0398,0.008 -0.0183,0.0155 -0.0327,0.037 -0.0579,0.0429 -0.009,7.9e-4 -0.0142,0.002 -0.0191,0.003 -0.0284,0.0375 -0.0656,0.0679 -0.11628,0.0687 -0.0138,0 -0.0276,-0.004 -0.0413,-0.006 -0.0102,-0.005 -0.0205,-0.009 -0.0305,-0.0155 -0.003,-0.002 -0.0239,-0.0192 -0.0279,-0.0222 -0.001,-0.001 -0.009,-0.009 -0.009,-0.009 0,-0.001 0.002,-0.001 0.003,-0.002 -0.0201,0 -0.0389,0.005 -0.0589,0.007 -0.0421,0.003 -0.0812,-0.003 -0.11938,-0.0217 -0.0277,-0.0192 -0.0415,-0.0268 -0.0579,-0.047 -0.0496,0.11105 -0.0987,0.22232 -0.15298,0.33124 -0.038,0.0725 -0.0193,0.0384 -0.0558,0.10232 -0.0618,0.10806 -0.17381,0.0415 -0.108,-0.0641 0.0357,-0.0572 0.0172,-0.0263 0.0548,-0.0935 0.0351,-0.0677 0.0634,-0.13849 0.0951,-0.20774 -0.0204,0.027 -0.0371,0.0481 -0.0672,0.0858 -0.0515,0.0616 -0.10785,0.12083 -0.18655,0.14573 -0.0418,0.0135 -0.0539,0.01 -0.0966,0.0103 -0.0607,-0.008 -0.11266,-0.0343 -0.14986,-0.0837 -0.018,-0.0239 -0.025,-0.0422 -0.0372,-0.0687 -0.004,-0.0138 -0.009,-0.0271 -0.01,-0.0413 -0.004,-0.0473 0.0107,-0.0909 0.0351,-0.12919 -7.9e-4,-7.9e-4 -0.002,-7.9e-4 -0.003,-0.002 -0.008,-0.002 -0.0171,-0.004 -0.0253,-0.007 -0.0264,0.0212 -0.0573,0.0373 -0.0899,0.0424 -0.0124,0.002 -0.0247,5.3e-4 -0.0372,0.001 -0.0112,-0.003 -0.0228,-0.004 -0.0336,-0.008 -0.0449,-0.016 -0.0679,-0.0452 -0.0729,-0.094 -5.2e-4,-0.006 -5.2e-4,-0.0123 0,-0.0181 -0.009,-0.0127 -0.0104,-0.0292 -0.0165,-0.0434 0.001,-0.0119 1.4e-4,-0.0244 0.002,-0.0362 0.0103,-0.0569 0.053,-0.10087 0.0941,-0.13797 0.0366,-0.029 0.077,-0.0541 0.12196,-0.0455 0.0392,-0.039 0.0822,-0.075 0.13849,-0.0853 0.0376,-0.007 0.0462,-0.002 0.0832,0.006 0.0119,0.006 0.0246,0.01 0.0356,0.0165 0.0287,0.0189 0.0493,0.0448 0.0651,0.0734 0.0166,-0.004 0.0324,-0.0104 0.0491,-0.0129 0.0543,-0.008 0.10936,-0.0138 0.16433,-0.0145 0.0162,-2.6e-4 0.0324,0.002 0.0486,0.002 -0.0114,-0.0547 0.007,-0.0913 0.0398,-0.0894 z m -0.14263,0.41652 c -0.005,0.002 -0.0116,0.003 -0.016,0.007 -0.0187,0.0124 -0.0278,0.02 -0.0367,0.0284 -8e-4,0.0204 -0.008,0.0447 -0.0134,0.0579 -0.006,0.0138 -0.0147,0.0258 -0.0227,0.0388 -0.0125,0.008 -0.0232,0.0232 -0.0367,0.0279 -0.004,0.004 -0.008,0.008 -0.0114,0.0124 -0.0229,0.004 -0.0464,0.0189 -0.0687,0.0119 -0.067,-0.0199 -0.0695,-0.0871 -0.0501,-0.14004 -0.002,0.002 -0.004,0.003 -0.006,0.004 -0.0231,0.0229 -0.0606,0.0567 -0.0646,0.092 -5.3e-4,0.004 7.9e-4,0.009 0.001,0.0134 0.017,0.0399 0.0278,0.0652 0.0729,0.077 0.007,0.001 0.0147,0.002 0.0217,0.002 0.0708,-0.002 0.11928,-0.0587 0.16278,-0.10748 0.0219,-0.0268 0.0427,-0.0546 0.0636,-0.0822 -10e-4,-0.008 -8e-4,-0.0177 0.001,-0.03 7.9e-4,-0.004 0.002,-0.008 0.003,-0.0124 z m 0.80409,0.0444 c -0.003,0.002 -0.007,0.004 -0.01,0.007 0.003,-0.001 0.005,-0.003 0.008,-0.004 0.001,0 0.003,-0.003 0.002,-0.003 z m 7.0838,3.92999 v 5.3e-4 c 0.0171,0.0177 0.0342,0.0352 0.0501,0.0558 l -5.3e-4,5.3e-4 c 0.0168,0.0218 0.024,0.0367 0.0367,0.0558 0.0246,-0.01 0.0511,-0.0151 0.0775,-0.0202 0.001,-1.2e-4 0.002,-5.3e-4 0.003,-5.3e-4 0.005,-0.007 0.0136,-0.0165 0.0274,-0.0279 8e-4,-5.3e-4 0.001,-0.001 0.002,-0.002 -0.0702,-0.004 -0.13704,-0.0247 -0.19637,-0.062 z m -0.75603,0.30748 v 5.3e-4 5.3e-4 5.3e-4 c -0.0367,10e-4 -0.0656,0.008 -0.0894,0.0181 0.003,5.3e-4 0.005,5e-5 0.008,5.3e-4 0.0108,0.002 0.0185,0.009 0.0279,0.0139 0.0125,-0.006 0.0269,-0.009 0.0439,-0.009 0.02,-1.3e-4 0.0429,0.004 0.0682,0.0124 8e-4,2.5e-4 10e-4,-2.7e-4 0.002,5.3e-4 0.002,-2.4e-4 0.003,-0.002 0.004,-0.003 0.0314,-0.004 0.0687,-0.014 0.0987,-0.002 0.009,-0.007 0.0181,-0.0128 0.0274,-0.0191 -0.0695,-0.008 -0.13775,-0.0161 -0.19069,-0.0139 z m 0.66611,0.10025 c -0.003,0.004 -0.006,0.008 -0.009,0.0114 0.004,-0.003 0.008,-0.006 0.009,-0.0114 z m 0.0548,0.10438 c -0.002,0.003 -0.003,0.006 -0.005,0.01 -0.002,0.005 -0.003,0.01 -0.005,0.015 0.003,-0.008 0.006,-0.0167 0.01,-0.0248 z" />
    </clipPath>
    <clipPath
       clipPathUnits="userSpaceOnUse"
       id="clipPath1239">
      <path
         id="path1240"
         style="fill:#ff0000;fill-opacity:1;fill-rule:nonzero;stroke:none;stroke-width:0.264583"
         d="m 117.9897,140.5847 v 0.0708 c 0.003,-0.003 0.007,-0.007 0.0103,-0.01 0.0366,-0.029 0.077,-0.0541 0.12196,-0.0455 0.005,-0.005 0.011,-0.0104 0.0165,-0.0155 z m 0.43821,0 c 0.006,0.008 0.0111,0.017 0.016,0.0258 0.0168,-0.004 0.0327,-0.0104 0.0496,-0.0129 0.0408,-0.006 0.0818,-0.0107 0.12299,-0.0129 z m 0.56741,0 c 10e-4,0.009 -0.003,0.0198 -0.004,0.03 0.0148,-8e-5 0.0269,0.0105 0.0413,0.0134 0.014,-5.3e-4 0.0279,-10e-4 0.0419,-0.002 0.0137,-0.005 0.0281,-0.009 0.0424,-0.007 0.01,0.001 0.0185,0.002 0.0264,0.005 0.007,-0.0137 0.017,-0.0258 0.0253,-0.0388 0.0295,0.004 0.0614,2.7e-4 0.0899,0.007 2.6e-4,8e-5 7.9e-4,-8e-5 10e-4,0 0.0136,0.001 0.0235,0.006 0.031,0.0139 0.0108,-0.004 0.0199,-0.0114 0.0326,-0.0108 0.0108,10e-4 0.0214,0.005 0.032,0.007 0.0252,0.0102 0.0441,0.0274 0.061,0.047 0.0291,-0.0207 0.0668,-0.0176 0.0889,0.002 l 5.3e-4,-5.3e-4 0.001,-5.3e-4 c 0.002,-2.3e-4 0.002,0.004 0.004,0.005 l 5.3e-4,5.3e-4 c 0.002,0.003 0.004,0.005 0.006,0.008 2.7e-4,5e-5 2.1e-4,0.001 5.3e-4,0.001 0.004,0.001 0.008,0.003 0.01,0.009 0.001,0.006 -7.9e-4,0.0121 0.002,0.0181 0,0.004 2.6e-4,0.009 10e-4,0.0129 0.001,0.004 1.7e-4,0.009 0.002,0.0129 5.3e-4,0.005 10e-4,0.008 10e-4,0.0134 0,0.004 -7e-5,0.009 0,0.0129 8e-5,0.005 5e-5,0.009 5.3e-4,0.0134 0,0.004 0.001,0.007 0.002,0.0114 10e-4,0.004 0.002,0.009 0.003,0.0129 10e-4,0.004 0.002,0.008 0.002,0.0119 1e-4,0.005 -5e-5,0.009 -5.3e-4,0.0145 -0.001,0.006 -0.002,0.0106 -0.003,0.0165 -2.5e-4,0.005 -9e-5,0.008 0,0.0124 0,0.004 -5.3e-4,0.008 -5.3e-4,0.0124 -9e-5,0.005 1.9e-4,0.009 0,0.0134 -9e-5,0.005 -5.2e-4,0.009 -0.001,0.015 -5.3e-4,0.005 -2.4e-4,0.01 0,0.015 0,0.006 5.3e-4,0.0121 0.001,0.0181 5.3e-4,0.004 8e-4,0.009 5.3e-4,0.0145 -2.5e-4,0.008 -0.004,0.0121 -0.008,0.0124 h -5.3e-4 c -0.003,0.002 -0.005,0.006 -0.008,0.007 1.1e-4,0.004 -5.3e-4,0.007 -0.001,0.0103 -0.003,0.0159 -0.019,0.0132 -0.016,-0.003 5.3e-4,-0.002 5.3e-4,-0.005 5.3e-4,-0.007 0,-5.2e-4 -1e-5,-10e-4 0,-0.002 -0.003,7.9e-4 -0.006,-2.7e-4 -0.008,-0.005 -0.005,-0.004 0.003,0.024 -0.009,0.0145 0,-0.001 -5.3e-4,-2.6e-4 -0.002,-0.002 -10e-4,-0.001 -0.002,0.001 -0.002,-0.002 -0.002,-0.003 -0.002,-0.007 -0.003,-0.0114 -0.003,0.002 -0.007,0.004 -0.0104,0.004 -10e-4,-1.4e-4 -0.002,-1.9e-4 -0.003,-5.3e-4 -8e-4,0 -0.003,-0.001 -0.004,-0.002 -9e-5,8e-5 -5.3e-4,-8e-5 -5.3e-4,0 -0.005,0.004 -0.01,0.009 -0.015,0.0119 -4e-5,0.002 -1.6e-4,0.005 -5.3e-4,0.007 -9e-5,0.001 -7.9e-4,0.002 -10e-4,0.002 l -0.003,0.005 c -0.006,0.009 -0.006,-5.3e-4 -0.007,-0.008 -0.0122,0.005 -0.0256,0.008 -0.0398,0.008 -0.0183,0.0155 -0.0327,0.037 -0.0579,0.0429 -0.009,7.9e-4 -0.0142,0.002 -0.0191,0.003 -0.023,0.0304 -0.0518,0.056 -0.0889,0.0651 h 58.8207 v -0.49042 z m -0.15348,5.3e-4 c 5.3e-4,0.001 10e-4,0.002 0.002,0.004 0.004,2.6e-4 0.014,0.002 0.0233,0.003 8e-4,-0.003 0.002,-0.005 0.003,-0.007 z m 0.6134,0.11214 c 5e-5,5.3e-4 -5e-5,0.001 0,0.002 7.9e-4,7.9e-4 0.002,0.002 0.003,0.002 1.1e-4,2.7e-4 10e-4,2.7e-4 10e-4,0 -7.9e-4,-0.001 -0.002,-0.003 -0.004,-0.004 z m -0.85266,0.21549 c -0.005,0.002 -0.0116,0.003 -0.016,0.007 -0.0187,0.0124 -0.0278,0.02 -0.0367,0.0284 -8e-4,0.0204 -0.008,0.0447 -0.0134,0.0579 -0.006,0.0138 -0.0147,0.0258 -0.0227,0.0388 -0.0125,0.008 -0.0232,0.0232 -0.0367,0.0279 -8e-4,7.9e-4 -0.002,0.002 -0.003,0.003 h 0.0269 c 0.0118,-0.0122 0.0227,-0.025 0.0336,-0.0372 0.0219,-0.0268 0.0427,-0.0546 0.0636,-0.0822 -0.001,-0.008 -8e-4,-0.018 0.001,-0.0305 7.9e-4,-0.004 0.002,-0.008 0.003,-0.0124 z m -0.44907,0.0269 c -0.0263,0.0211 -0.057,0.0373 -0.0894,0.0424 -0.0124,0.002 -0.0247,5.3e-4 -0.0372,0.001 -0.0112,-0.003 -0.0228,-0.004 -0.0336,-0.008 -10e-4,-5.3e-4 -0.002,-10e-4 -0.004,-0.002 v 0.10128 h 0.1571 c -0.003,-0.0461 0.0112,-0.0887 0.0351,-0.12609 -5.3e-4,-5.3e-4 -0.002,-5.3e-4 -0.002,-0.001 -0.009,-0.002 -0.017,-0.005 -0.0253,-0.008 z m 0.19275,0.0176 c -0.002,0.001 -0.003,0.002 -0.005,0.003 -0.0231,0.0229 -0.0606,0.0567 -0.0646,0.092 -5.3e-4,0.004 7.9e-4,0.009 10e-4,0.0134 0.001,0.003 0.003,0.006 0.004,0.009 h 0.0775 c -0.0291,-0.0295 -0.0275,-0.0777 -0.0129,-0.11782 z m 1.06041,0 c -0.003,0.002 -0.007,0.004 -0.01,0.007 0.003,-0.001 0.005,-0.003 0.008,-0.004 0.001,0 0.003,-0.003 0.002,-0.003 z m -0.54519,0.007 c -0.0167,0.0372 -0.0331,0.0746 -0.0501,0.11162 h 0.36484 c -0.005,-10e-4 -0.01,-0.002 -0.015,-0.003 -0.0102,-0.005 -0.0205,-0.009 -0.0305,-0.0155 -0.003,-0.002 -0.0239,-0.0192 -0.0279,-0.0222 -10e-4,-0.001 -0.009,-0.009 -0.009,-0.009 0,-0.001 0.002,-0.001 0.003,-0.002 -0.0201,0 -0.0389,0.005 -0.0589,0.007 -0.0421,0.003 -0.0812,-0.003 -0.11938,-0.0217 -0.027,-0.0187 -0.041,-0.0263 -0.0568,-0.0455 z m -0.15865,0.0548 c -0.0145,0.0196 -0.0305,0.0396 -0.0434,0.0558 h 0.0186 c 0.009,-0.0186 0.0163,-0.0372 0.0248,-0.0558 z" />
    </clipPath>
    <clipPath
       clipPathUnits="userSpaceOnUse"
       id="clipPath1242">
      <path
         id="path1243"
         style="fill:#ff0000;fill-opacity:1;fill-rule:nonzero;stroke:none;stroke-width:0.264583"
         d="m 116.96909,139.40441 v 2.92075 h 2.82515 v -2.92075 z m 1.77715,1.09192 c 0.0193,0.001 0.0437,0.0151 0.0703,0.046 0.012,0.0138 0.0197,0.0299 0.0259,0.0465 0.004,2.7e-4 0.0145,0.002 0.0243,0.003 0.0146,-0.0464 0.0418,-0.0671 0.0672,-0.0687 0.0357,-0.002 0.0687,0.0347 0.061,0.092 0.0231,2.7e-4 0.046,0.004 0.0677,0.0119 0.004,-1.5e-4 0.008,-2.6e-4 0.0119,-5.3e-4 0.0137,-0.005 0.0281,-0.009 0.0424,-0.007 0.01,0.001 0.0185,0.002 0.0263,0.005 0.007,-0.0137 0.017,-0.0258 0.0253,-0.0388 0.0295,0.004 0.0614,2.7e-4 0.0899,0.007 2.7e-4,8e-5 8e-4,-8e-5 0.001,0 0.011,0.001 0.0195,0.005 0.0263,0.01 0.0115,-0.005 0.0236,-0.007 0.0372,-0.007 0.0108,0.001 0.0214,0.005 0.032,0.007 0.0252,0.0102 0.0441,0.0274 0.061,0.047 0.01,-0.007 0.0199,-0.0109 0.0305,-0.0129 -6e-5,-0.004 1e-4,-0.008 0,-0.0119 0,-0.0157 -0.002,-0.0313 -0.003,-0.047 -5.3e-4,-0.007 0.002,-0.0113 0.006,-0.0124 2.6e-4,-10e-5 7.9e-4,-5.3e-4 0.001,-5.3e-4 v -5.3e-4 h 5.3e-4 c 0.004,1.3e-4 0.007,0.004 0.008,0.0119 0.001,0.016 0.003,0.0319 0.003,0.0481 1e-4,0.004 -5e-5,0.007 0,0.0109 0.0152,2.6e-4 0.0298,0.005 0.0408,0.0139 5.3e-4,-2.6e-4 0.001,-7.9e-4 0.002,-0.001 l 5.3e-4,0.001 v 5.3e-4 h 10e-4 c 0.005,-10e-4 0.009,0.003 0.009,0.0124 2.6e-4,5.3e-4 2.6e-4,0.001 5.3e-4,0.002 0.004,2.6e-4 0.008,0.004 0.009,0.0114 0.001,0.006 0.001,0.0116 0.002,0.0176 0,0.004 2.7e-4,0.009 10e-4,0.0129 0.001,0.004 5.3e-4,0.009 0.002,0.0134 5.3e-4,0.005 5.3e-4,0.008 5.3e-4,0.0129 1e-5,0.004 -7e-5,0.009 0,0.0129 8e-5,0.005 -5e-5,0.009 5.2e-4,0.0134 0,0.004 0.001,0.007 0.002,0.0114 10e-4,0.004 0.002,0.009 0.003,0.0129 10e-4,0.004 0.002,0.008 0.002,0.0119 1.1e-4,0.005 2e-5,0.009 -5.3e-4,0.0145 -0.001,0.006 -0.002,0.0112 -0.003,0.017 -2.6e-4,0.005 -9e-5,0.008 0,0.0124 0,0.004 -5.3e-4,0.008 -5.3e-4,0.0124 -9e-5,0.005 1.8e-4,0.009 0,0.0134 -9e-5,0.005 -5.3e-4,0.009 -0.001,0.0145 -5.3e-4,0.005 -2.3e-4,0.01 0,0.015 0,0.006 5.3e-4,0.0121 0.001,0.0181 5.3e-4,0.004 7.9e-4,0.009 5.3e-4,0.0145 -2.6e-4,0.0102 -0.007,0.0139 -0.0119,0.0114 -0.001,0.004 -0.003,0.008 -0.005,0.008 9e-5,0.004 -5.3e-4,0.007 -10e-4,0.0109 -0.003,0.0159 -0.019,0.0163 -0.016,-0.003 5.3e-4,-0.002 5.3e-4,-0.005 5.3e-4,-0.007 2e-5,-5.3e-4 0,-0.001 0,-0.002 -0.003,5.3e-4 -0.006,-0.002 -0.008,-0.005 -0.006,-0.007 0.003,0.0249 -0.009,0.015 0,-0.001 -2.7e-4,0.001 -0.002,-0.002 -10e-4,-0.001 -0.002,-0.001 -0.002,-0.002 -0.002,-0.003 -0.003,-0.007 -0.004,-0.01 h -5.3e-4 c -0.002,0.002 -0.005,0.002 -0.008,0.002 -0.001,-1.4e-4 -0.002,-1.3e-4 -0.003,-5.3e-4 -7.9e-4,0 -0.003,-0.001 -0.004,-0.002 -10e-5,9e-5 -5.2e-4,-7e-5 -5.2e-4,0 -0.005,0.004 -0.009,0.008 -0.0145,0.0109 -1.6e-4,0.003 -5.3e-4,0.006 -0.001,0.008 -9e-5,0.001 -1.9e-4,0.002 -5.3e-4,0.002 l -0.003,0.005 c -0.005,0.008 -0.006,-0.003 -0.007,-0.01 -0.0124,0.005 -0.0259,0.008 -0.0403,0.008 -0.0183,0.0155 -0.0327,0.037 -0.0579,0.0429 -0.009,8e-4 -0.0142,0.002 -0.0191,0.003 -0.0284,0.0375 -0.0656,0.0679 -0.11628,0.0687 -0.0138,0 -0.0276,-0.004 -0.0413,-0.006 -0.0102,-0.005 -0.0205,-0.01 -0.0305,-0.0155 -0.003,-0.002 -0.0239,-0.0192 -0.0279,-0.0222 -0.001,-10e-4 -0.009,-0.009 -0.009,-0.009 0,-0.001 0.002,-0.001 0.003,-0.002 -0.0201,0 -0.0389,0.005 -0.0589,0.007 -0.0421,0.003 -0.0812,-0.003 -0.11938,-0.0217 -0.0264,-0.0183 -0.0403,-0.0262 -0.0558,-0.0444 -0.0495,0.11077 -0.0999,0.22105 -0.15399,0.32969 -0.038,0.0725 -0.0193,0.0384 -0.0558,0.10232 -0.0618,0.10806 -0.17381,0.0415 -0.10801,-0.0641 0.0357,-0.0572 0.0172,-0.0263 0.0548,-0.0935 0.0385,-0.0743 0.0746,-0.14919 0.10904,-0.22531 -0.0286,0.0387 -0.0444,0.0581 -0.0806,0.10334 -0.0515,0.0616 -0.10785,0.12084 -0.18655,0.14574 -0.0418,0.0135 -0.0539,0.01 -0.0966,0.0103 -0.0607,-0.008 -0.11266,-0.0343 -0.14986,-0.0837 -0.018,-0.0239 -0.025,-0.0422 -0.0372,-0.0687 -0.004,-0.0138 -0.009,-0.0271 -0.01,-0.0413 -0.004,-0.0463 0.0101,-0.0889 0.0336,-0.12661 l -0.005,-0.005 c -0.007,-0.002 -0.0146,-0.004 -0.0217,-0.007 -0.0264,0.0212 -0.0573,0.0373 -0.0899,0.0424 -0.0124,0.002 -0.0247,5.3e-4 -0.0372,0.001 -0.0112,-0.003 -0.0228,-0.004 -0.0336,-0.008 -0.0449,-0.016 -0.0679,-0.0452 -0.0729,-0.094 -5.3e-4,-0.006 -5.3e-4,-0.0123 0,-0.0181 -0.009,-0.0127 -0.0105,-0.0291 -0.0165,-0.0434 0.001,-0.0119 1.3e-4,-0.0244 0.002,-0.0362 0.0103,-0.0569 0.0529,-0.10088 0.094,-0.13798 0.0366,-0.029 0.077,-0.0541 0.12196,-0.0455 0.0392,-0.039 0.0822,-0.075 0.13849,-0.0853 0.0376,-0.007 0.0462,-0.002 0.0832,0.006 0.0119,0.006 0.0246,0.01 0.0357,0.0165 0.0276,0.0182 0.0474,0.0425 0.063,0.0698 0.0166,-0.004 0.0329,-0.007 0.0496,-0.01 0.0543,-0.008 0.10936,-0.0138 0.16433,-0.0145 0.0167,-2.6e-4 0.0335,-1.4e-4 0.0501,5.3e-4 -0.0108,-0.0539 0.007,-0.0897 0.0398,-0.0879 z m -0.14366,0.41652 c -0.005,0.002 -0.0116,0.003 -0.016,0.007 -0.0187,0.0124 -0.0278,0.02 -0.0367,0.0284 -8e-4,0.0204 -0.008,0.0447 -0.0134,0.0579 -0.006,0.0138 -0.0147,0.0258 -0.0227,0.0388 -0.0125,0.008 -0.0232,0.0232 -0.0367,0.0279 -0.004,0.004 -0.008,0.008 -0.0114,0.0124 -0.0229,0.004 -0.0464,0.0189 -0.0687,0.0119 -0.067,-0.0199 -0.0695,-0.0871 -0.0501,-0.14004 -0.002,0.002 -0.004,0.003 -0.006,0.004 -0.0231,0.0229 -0.0606,0.0567 -0.0646,0.092 -5.3e-4,0.004 7.9e-4,0.009 0.001,0.0134 0.017,0.0399 0.0278,0.0652 0.0729,0.077 0.007,0.001 0.0147,0.002 0.0217,0.002 0.0708,-0.002 0.11928,-0.0587 0.16278,-0.10748 0.0219,-0.0268 0.0427,-0.0546 0.0636,-0.0822 -10e-4,-0.008 -8e-4,-0.0177 0.001,-0.03 7.9e-4,-0.004 0.002,-0.008 0.003,-0.0124 z m 0.80409,0.0444 c -0.003,0.002 -0.007,0.004 -0.01,0.007 0.003,-0.001 0.005,-0.003 0.008,-0.004 0.001,0 0.003,-0.003 0.002,-0.003 z" />
    </clipPath>
  </defs>
  <g
     id="layer1">
    <path
       style="fill:none;stroke:#000000;stroke-width:0.264583"
       id="path274"
       d="m 177.45697,145.1848 a 59.194061,75.03096 0 0 1 -60.65993,70.90877 59.194061,75.03096 0 0 1 -57.639774,-74.8471 59.194061,75.03096 0 0 1 57.390574,-75.154133 59.194061,75.03096 0 0 1 60.895,70.584313"
       clip-path="url(#clipPath1230)" />
    <rect
       style="fill:none;stroke:#000000;stroke-width:0.264583"
       id="rect274"
       width="76.009338"
       height="8.5608568"
       x="110.8721"
       y="136.8205"
       clip-path="url(#clipPath1233)" />
    <path
       style="fill:none;stroke:#000000;stroke-width:0.264583"
       id="path275"
       d="m 127.42326,141.9069 a 9.3781776,9.9615154 0 0 1 -9.61042,9.41423 9.3781776,9.9615154 0 0 1 -9.13193,-9.9371 9.3781776,9.9615154 0 0 1 9.09245,-9.97787 9.3781776,9.9615154 0 0 1 9.64766,9.37116"
       clip-path="url(#clipPath1236)" />
    <path
       style="fill:none;stroke:#000000;stroke-width:0.264583"
       d="m 117.9901,140.79445 59.70467,0.14763 -0.29671,-0.25725"
       id="path749"
       clip-path="url(#clipPath1239)" />
    <path
       style="fill:none;stroke:#000000;stroke-width:0.264583"
       id="path750"
       d="m 119.66215,140.93725 a 1.2814308,1.3280854 0 0 1 -1.31316,1.25512 1.2814308,1.3280854 0 0 1 -1.24779,-1.32483 1.2814308,1.3280854 0 0 1 1.24239,-1.33026 1.2814308,1.3280854 0 0 1 1.31825,1.24937"
       clip-path="url(#clipPath1242)" />
  </g>
  <text
     xml:space="preserve"
     style="font-size:12.7px;fill:none;stroke:#000000;stroke-width:0.264583"
     x="138.82829"
     y="135.87885"
     id="text1"><tspan
       sodipodi:role="line"
       id="tspan1"
       style="font-size:12.7px;stroke-width:0.264583"
       x="138.82829"
       y="135.87885">A</tspan></text>
  <text
     xml:space="preserve"
     style="font-size:12.7px;fill:none;stroke:#000000;stroke-width:0.264583"
     x="139.34816"
     y="155.39177"
     id="text2"><tspan
       sodipodi:role="line"
       id="tspan2"
       style="stroke-width:0.264583"
       x="139.34816"
       y="155.39177">B</tspan></text>
  <text
     xml:space="preserve"
     style="font-size:12.7px;fill:none;stroke:#000000;stroke-width:0.264583"
     x="87.768036"
     y="144.69379"
     id="text3"><tspan
       sodipodi:role="line"
       id="tspan3"
       style="stroke-width:0.264583"
       x="87.768036"
       y="144.69379">C_I</tspan><tspan
       sodipodi:role="line"
       style="stroke-width:0.264583"
       x="87.768036"
       y="160.56879"
       id="tspan4" /></text>
  <text
     xml:space="preserve"
     style="font-size:12.7px;fill:none;stroke:#000000;stroke-width:0.264583"
     x="164.62395"
     y="92.696487"
     id="text5"><tspan
       sodipodi:role="line"
       id="tspan5"
       style="stroke-width:0.264583"
       x="164.62395"
       y="92.696487">C_E</tspan></text>
  <ellipse
     style="fill:none;stroke:#000000;stroke-width:0.264583"
     id="path7"
     cx="44.127216"
     cy="33.061108"
     rx="9.2912903"
     ry="12.773989" />
  <rect
     style="fill:none;stroke:#000000;stroke-width:0.264583"
     id="rect7"
     width="49.627914"
     height="10.394554"
     x="43.795898"
     y="23.903681" />
</svg>
